<?xml version="1.0" encoding="utf-8" ?>
<svg baseProfile="full" height="200mm" version="1.1" viewBox="0,0,200,200" width="200mm" xmlns="http://www.w3.org/2000/svg" xmlns:ev="http://www.w3.org/2001/xml-events" xmlns:xlink="http://www.w3.org/1999/xlink"><defs /><rect fill="#1a1a1a" height="200" width="200" x="0" y="0" /><text alignment-baseline="middle" fill="#e1ed5e" style="dominant-baseline: central; font-size:9.0px; font-family:Arial;" text-anchor="middle" x="100.0" y="100.0">2024</text><line stroke="#e1ed5e" stroke-width="0.3" x1="100.0" x2="100.0" y1="15.0" y2="10.0" /><path d="M 100.0 14.0 a86.0,86.0 0 0,1 42.35913384403234,11.155469271406648" fill="none" id="id61" stroke="none" /><text fill="#e1ed5e" style="font-size:6.75px; font-family:Arial;" text-anchor="middle"><textPath startOffset="22.145653131862478" xlink:href="#id61">January</textPath></text><line stroke="#e1ed5e" stroke-width="0.3" x1="143.13028292997686" x2="145.6673583964461" y1="26.7553504044142" y2="22.446841604673864" /><path d="M 143.63769802327073 25.89364864446614 a86.0,86.0 0 0,1 29.32050498858742,28.57503671076993" fill="none" id="id62" stroke="none" /><text fill="#e1ed5e" style="font-size:6.75px; font-family:Arial;" text-anchor="middle"><textPath startOffset="20.669276256404974" xlink:href="#id62">February</textPath></text><path d="M 112.16784306229584 82.88440491214696 l 13.001285828128015 -18.287936712893057 a43.43840596832725,43.43840596832725 0 0,0 0.6040399724683966,0.43727835783274327 l -13.31330681097038 18.062057583687242" fill="#fff417" stroke="none" /><path d="M 115.16444852881244 85.47280134310134 l 16.148969664206977 -15.470347633837546 a43.36338250639335,43.36338250639335 0 0,0 0.5103336674246778,0.5419566697379253 l -16.412159165367914 15.190849504155127" fill="#fff316" stroke="none" /><line stroke="#e1ed5e" stroke-width="0.3" x1="172.87174338648825" x2="177.1583165268699" y1="56.24261187166439" y2="53.66864786411523" /><path d="M 173.72905801456457 55.72781907015455 a86.0,86.0 0 0,1 12.242430191666344,42.057860355516425" fill="none" id="id63" stroke="none" /><text fill="#e1ed5e" style="font-size:6.75px; font-family:Arial;" text-anchor="middle"><textPath startOffset="22.145653131862474" xlink:href="#id63">March</textPath></text><path d="M 119.58574465831526 92.42381321644754 l 15.667126977059821 -6.060381282947289 a37.798425194345256,37.798425194345256 0 0,0 0.22889523261218597,0.6071717988933791 l -15.768852893486448 5.790541203859752" fill="#ffa70f" stroke="none" /><path d="M 120.16314734710363 94.1308016681162 l 24.176742039367046 -7.0374972520458785 a46.18017520214367,46.18017520214367 0 0,0 0.2150270079774096,0.7630549937102106 l -24.29398753941904 6.621434334432655" fill="#e6ff1a" stroke="none" /><path d="M 120.77682067341334 96.94652285012252 l 5.997611543704758 -0.881442357828044 a27.062036362424266,27.062036362424266 0 0,0 0.06360285179370796,0.4601985518541014 l -6.011858912053678 0.7783554977738569" fill="#ff0701" stroke="none" /><path d="M 120.86939407059847 97.66154086499901 l 25.20772275147863 -2.8245779125812884 a46.36547903548552,46.36547903548552 0 0,0 0.08184082758509131,0.7917357668719361 l -25.25249597154539 2.391437623426421" fill="#e4ff1b" stroke="none" /><path d="M 120.93736805541906 98.37931529534042 l 27.858133634655786 -2.1563957304730814 a48.9414683249242,48.9414683249242 0 0,0 0.057648479101143485,0.8381962340286359 l -27.891046074921995 1.6778560722901112" fill="#c3ff1e" stroke="none" /><path d="M 120.98066250479742 99.09900007780936 l 28.038528414180306 -1.2040950524674805 a49.064371016079676,49.064371016079676 0 0,0 0.02891366422032183,0.8417897861997748 l -28.055066765397473 0.7225990017035858" fill="#c2ff1e" stroke="none" /><line stroke="#e1ed5e" stroke-width="0.3" x1="184.99686870605535" x2="189.99668451229388" y1="99.2704041080226" y2="99.22748670261217" /><path d="M 185.99683186730306 99.26182062694052 a86.0,86.0 0 0,1 -10.086455211305974,41.156179273409016" fill="none" id="id64" stroke="none" /><text fill="#e1ed5e" style="font-size:6.75px; font-family:Arial;" text-anchor="middle"><textPath startOffset="21.40746469413373" xlink:href="#id64">April</textPath></text><path d="M 120.99303781780057 100.54070618675476 l 28.092787180731097 0.7235705457990455 a49.10210394110372,49.10210394110372 0 0,0 -0.02893590025640809,0.8424371641286458 l -28.07622659347784 -1.205713974491802" fill="#c1ff1e" stroke="none" /><path d="M 120.98066250479742 100.90099992219065 l 28.17361325450203 1.209896176745193 a49.19958036164289,49.19958036164289 0 0,0 -0.043479333853129215,0.8434874611533195 l -28.14869233119233 -1.693355431275243" fill="#c0ff1e" stroke="none" /><path d="M 120.9064616781168 101.97986365728391 l 55.505017015269864 5.256382819694662 a76.75335392792597,76.75335392792597 0 0,0 -0.13547919995791113,1.3106383627700884 l -55.40660542283029 -6.208425704747682" fill="#43ffe1" stroke="none" /><path d="M 120.82617615685814 102.69636545807757 l 27.78052270743373 3.596744849917972 a49.012390390926164,49.012390390926164 0 0,0 -0.11519191535852051,0.8334713167457874 l -27.71468627552 -4.073104474863845" fill="#c2ff1e" stroke="none" /><path d="M 120.7213421655516 103.40968896794604 l 6.939434007155104 1.1418812251130281 a28.03275458635707,28.03275458635707 0 0,0 -0.08220963368553359,0.47416332073816053 l -6.918809555977337 -1.2608375787717765" fill="#ff1602" stroke="none" /><path d="M 120.51834098615036 104.47187691870673 l 54.60727357618695 11.901401115406168 a76.88915526230753,76.88915526230753 0 0,0 -0.2921390216161199,1.2872184325075946 l -54.39492369301317 -12.83705388185278" fill="#43ffe3" stroke="none" /><path d="M 120.16314734710363 105.8691983318838 l 26.94632518337951 7.843682540930671 a49.06470731526223,49.06470731526223 0 0,0 -0.24234152384208715,0.8066761155612951 l -26.807707339533792 -8.30509626008269" fill="#c2ff1e" stroke="none" /><path d="M 119.94978838288452 106.5578916946017 l 26.885922156787124 8.837936635205983 a49.30127089352584,49.30127089352584 0 0,0 -0.2711912153910605,0.8017286407826135 l -26.7302455198237 -9.298166950462758" fill="#bfff1e" stroke="none" /><path d="M 119.58574465831526 107.57618678355244 l 26.223590219183176 10.143848043659755 a49.1171537876169,49.1171537876169 0 0,0 -0.310938071734211,0.7837670605521599 l -26.04559347248284 -10.592516121425477" fill="#c1ff1e" stroke="none" /><path d="M 119.31412917781788 108.2440532568976 l 32.01555464340505 13.665536514712624 a55.81009375683724,55.81009375683724 0 0,0 -0.38367078952113204,0.8779138503452222 l -31.776249971866957 -14.213112434833691" fill="#72ff27" stroke="none" /><path d="M 119.0197475246899 108.90220220490707 l 25.356387386757124 11.868069616058031 a48.9963829399245,48.9963829399245 0 0,0 -0.3630882604948267,0.7587148179092427 l -25.148919868302386 -12.301596936032379" fill="#c2ff1e" stroke="none" /><line stroke="#e1ed5e" stroke-width="0.3" x1="174.33088141563837" x2="178.70328620479359" y1="141.23008692659167" y2="143.65538615756765" /><path d="M 175.20536237346943 141.71514677278685 a86.0,86.0 0 0,1 -30.301960400862466,31.631185727798858" fill="none" id="id65" stroke="none" /><text fill="#e1ed5e" style="font-size:6.75px; font-family:Arial;" text-anchor="middle"><textPath startOffset="22.145653131862474" xlink:href="#id65">May</textPath></text><path d="M 118.36410011445183 110.18625677009912 l 49.010455770576286 27.18527364734845 a77.04519496014652,77.04519496014652 0 0,0 -0.6514598100164324,1.1510670626256743 l -48.53656259553848 -28.022597480073244" fill="#44ffe5" stroke="none" /><path d="M 118.00360718960297 110.81064883170644 l 30.207553172711876 18.13876774671451 a56.23508427762684,56.23508427762684 0 0,0 -0.5040592563142652,0.8233429136656062 l -29.891725951942206 -18.654647776504675" fill="#6dff28" stroke="none" /><path d="M 116.1254893667686 113.45245675266167 l 21.659122998538606 18.068810738784297 a49.20637393533296,49.20637393533296 0 0,0 -0.5466721213911905,0.6439783844113252 l -21.3457563136403 -18.43795590564518" fill="#c0ff1e" stroke="none" /><path d="M 115.6541949942343 113.99807769240083 l 21.274594945076508 19.023873985549866 a49.539729702559484,49.539729702559484 0 0,0 -0.5723072535958451,0.629065925176292 l -20.944889990638785 -19.38627748628383" fill="#bcff1f" stroke="none" /><path d="M 115.41159269507618 114.26474011684316 l 20.507002893456466 18.980975726406655 a48.94306009009519,48.94306009009519 0 0,0 -0.5759996085887001,0.6116916236711967 l -20.178147451131505 -19.33020881002235" fill="#c3ff1e" stroke="none" /><path d="M 114.91283532996324 114.78537596483092 l 19.82828208798614 19.658810609848008 a48.921848168676526,48.921848168676526 0 0,0 -0.5963994482550606,0.591302047703259 l -19.487890719601115 -19.99629266777993" fill="#c3ff1e" stroke="none" /><path d="M 114.39649973595853 115.28858382429668 l 11.641819903663068 12.363209302880444 a37.981781853979726,37.981781853979726 0 0,0 -0.4785166052862107,0.442907826014802 l -11.42787352706289 -12.561234875027624" fill="#ffaa0f" stroke="none" /><path d="M 113.59037401385872 116.0094264158162 l 17.98545588879594 21.18682181321605 a48.791330340104125,48.791330340104125 0 0,0 -0.6431758337393456,0.5365601558465788 l -17.619105720894698 -21.4924441529745" fill="#c5ff1e" stroke="none" /><path d="M 112.7482090630111 116.68781488649013 l 17.077959015220983 22.355596560773527 a49.13235471327697,49.13235471327697 0 0,0 -0.6746270299690207,0.5062527002699206 l -16.691678996341196 -22.645468288307463" fill="#c1ff1e" stroke="none" /><path d="M 111.5731344415666 117.5232005979908 l 15.355004327647118 23.24943362361516 a48.86238183861798,48.86238183861798 0 0,0 -0.7038844070631473,0.4562493685681898 l -14.953634288326962 -23.509596833887244" fill="#c4ff1e" stroke="none" /><line stroke="#e1ed5e" stroke-width="0.3" x1="143.1302829299769" x2="145.66735839644613" y1="173.24464959558577" y2="177.55315839532614" /><path d="M 143.63769802327073 174.10635135553383 a86.0,86.0 0 0,1 -40.68552437913181,11.842963189579606" fill="none" id="id66" stroke="none" /><text fill="#e1ed5e" style="font-size:6.75px; font-family:Arial;" text-anchor="middle"><textPath startOffset="21.407464694133747" xlink:href="#id66">June</textPath></text><path d="M 110.65571695917076 118.09573695890943 l 14.154570905600172 24.03755588248151 a48.89544712538382,48.89544712538382 0 0,0 -0.7269298514227834,0.4196931454009203 l -13.739848586316992 -24.2769959251586" fill="#c4ff1e" stroke="none" /><path d="M 110.02825361518725 118.45085714620011 l 16.193754711809767 29.79468472912447 a54.91107385168131,54.91107385168131 0 0,0 -0.8320627541321673,0.4430265504543745 l -15.679903141891044 -30.068281747301413" fill="#7cff26" stroke="none" /><path d="M 109.06512990194946 118.94263497670748 l 12.151663287238192 25.392302647589098 a49.15016792832989,49.15016792832989 0 0,0 -0.7641945020814496,0.35768161341659405 l -11.713980071285235 -25.597160492576226" fill="#c1ff1e" stroke="none" /><path d="M 108.4095320186766 119.2426549942271 l 11.281287651782872 25.813793881963758 a49.17125140391847,49.17125140391847 0 0,0 -0.7763553464531456,0.3313799324583376 l -10.836497230159296 -26.0036484640815" fill="#c0ff1e" stroke="none" /><path d="M 107.407793817531 119.65005319985036 l 9.92886303158172 26.33748881116075 a49.14685840334455,49.14685840334455 0 0,0 -0.7919919069433489,0.29083039846058045 l -9.475281972984243 -26.504050058630053" fill="#c1ff1e" stroke="none" /><path d="M 106.38641147887787 120.00534299687104 l 8.478023326952885 26.557287320447863 a48.877704162164754,48.877704162164754 0 0,0 -0.8014997748557633,0.24830667905700557 l -8.020882919225498 -26.698910587311513" fill="#c4ff1e" stroke="none" /><path d="M 105.69591212413111 120.21278271476187 l 15.188420255208168 53.89834528843657 a76.99749757516268,76.99749757516268 0 0,0 -1.2752934161012996,0.3475868915363354 l -14.260945438172174 -54.15113267411705" fill="#44ffe4" stroke="none" /><path d="M 104.29559338865022 120.5559693870025 l 1.6415466915623027 7.855395165717264 a29.025079984034633,29.025079984034633 0 0,0 -0.48859370390958423,0.09773242464665675 l -1.50645650212176 -7.882416987026782" fill="#ff2603" stroke="none" /><path d="M 103.2317021107853 120.74984581791261 l 4.327669166650369 27.786740510284375 a49.1217294738758,49.1217294738758 0 0,0 -0.8343089367839284,0.12261468270110586 l -3.8500351242587554 -27.85693626628436" fill="#c1ff1e" stroke="none" /><path d="M 101.08105385017728 120.97215588758144 l 1.3667556523906343 26.514694524670436 a47.54989730205995,47.54989730205995 0 0,0 -0.8155356235370528,0.03502260870849424 l -0.911394268252752 -26.53424970180476" fill="#d5ff1c" stroke="none" /><line stroke="#e1ed5e" stroke-width="0.3" x1="101.45913802915013" x2="101.54496967792366" y1="184.9874750549273" y2="189.98673829345242" /><path d="M 101.47630435890484 185.9873277026323 a86.0,86.0 0 0,1 -42.54439059252881,-10.42667462771756" fill="none" id="id67" stroke="none" /><text fill="#e1ed5e" style="font-size:6.75px; font-family:Arial;" text-anchor="middle"><textPath startOffset="22.145653131862474" xlink:href="#id67">July</textPath></text><path d="M 98.91894614982273 120.97215588758144 l -1.1508456934411118 22.32609900185923 a43.355740704591554,43.355740704591554 0 0,0 -0.742943245715641,-0.04469362077142442 l 1.533933291289199 -22.303053403263114" fill="#fff316" stroke="none" /><path d="M 96.76829788921471 120.74984581791261 l -4.323812701575989 27.76197923806559 a49.09666968687027,49.09666968687027 0 0,0 -0.8316566634663075,-0.1368487874909018 l 4.79974686809536 -27.68366445207902" fill="#c1ff1e" stroke="none" /><path d="M 96.41257539226777 120.69131181640829 l -4.943459464027529 28.512560515279567 a49.93793183021141,49.93793183021141 0 0,0 -0.8433928523081464,-0.1536942725846442 l 5.432187049886733 -28.423498068763557" fill="#b7ff1f" stroke="none" /><path d="M 95.35216902796893 120.47920084513623 l -3.2539745151268535 14.337612112240143 a35.70222674380144,35.70222674380144 0 0,0 -0.5965125430613232,-0.1407753359430262 l 3.4996192119280645 -14.279640632650889" fill="#ff890c" stroke="none" /><path d="M 95.00130118170881 120.39639698878247 l -4.028585932313715 16.438005362160286 a37.92446527664748,37.92446527664748 0 0,0 -0.6309813059485025,-0.16039298053890783 l 4.310172531487596 -16.366427149786116" fill="#ffa90f" stroke="none" /><path d="M 94.30408787586889 120.21278271476187 l -1.5184606655455748 5.388481216828354 a26.59834373872497,26.59834373872497 0 0,0 -0.4384166843996204,-0.12761670727551117 l 1.610737362326802 -5.361620815250327" fill="#ff0000" stroke="none" /><path d="M 93.27111125876986 119.89276391827306 l -3.6351356789113543 10.746632713421127 a32.34479290605463,32.34479290605463 0 0,0 -0.5244388232814632,-0.18242704619225936 l 3.819080274237839 -10.682647234660276" fill="#ff5808" stroke="none" /><path d="M 91.59046798132341 119.24265499422711 l -5.623917260568899 12.868623286154824 a35.04385668663316,35.04385668663316 0 0,0 -0.5491649308485193,-0.24563448847261907 l 5.843995594273054 -12.770185046772351" fill="#ff800b" stroke="none" /><path d="M 90.93487009805054 118.94263497670748 l -11.292809147806244 23.597627818054107 a47.160572950304,47.160572950304 0 0,0 -0.727260389946878,-0.35573950020590894 l 11.696229787015191 -23.400294567750976" fill="#d9ff1c" stroke="none" /><path d="M 90.6110303473126 118.78422872680471 l -12.645396714347685 25.299264244133806 a49.28354343708975,49.28354343708975 0 0,0 -0.7535049626259881,-0.38474500285224955 l 13.077828898687255 -25.07846128960872" fill="#bfff1e" stroke="none" /><path d="M 90.28995756902619 118.62028667847754 l -11.456549672891136 21.96944460046576 a45.77718762209214,45.77718762209214 0 0,0 -0.6936577658660326,-0.3693336898946231 l 11.83199625454373 -21.769540442848562" fill="#ebff1a" stroke="none" /><line stroke="#e1ed5e" stroke-width="0.3" x1="58.13341422392154" x2="55.67067388415222" y1="173.97424548756322" y2="178.32567169271397" /><path d="M 57.64086615596768 174.84453072859336 a86.0,86.0 0 0,1 -31.369924170532247,-30.572349798747897" fill="none" id="id68" stroke="none" /><text fill="#e1ed5e" style="font-size:6.75px; font-family:Arial;" text-anchor="middle"><textPath startOffset="22.145653131862474" xlink:href="#id68">August</textPath></text><path d="M 89.65649057296885 118.27599006163327 l -13.902014578871094 24.563527695556452 a49.224686042567654,49.224686042567654 0 0,0 -0.7318246547474607,-0.42251916141805457 l 14.321631701478955 -24.32126163686223" fill="#c0ff1e" stroke="none" /><path d="M 89.34428304082925 118.09573695890944 l -9.727891416425026 16.520086345288913 a40.17146640884721,40.17146640884721 0 0,0 -0.5912230660965864,-0.35501246397255604 l 10.01004723907904 -16.350659880780437" fill="#ffc812" stroke="none" /><path d="M 89.03521579738668 117.91015095944536 l -14.585769842142764 23.824758873981356 a48.934992702546296,48.934992702546296 0 0,0 -0.7126702917072526,-0.44475897089219896 l 14.992604262639729 -23.57086410624761" fill="#c3ff1e" stroke="none" /><path d="M 88.72937992617639 117.7192867562869 l -15.062795461496373 23.6812163292985 a49.065776560606864,49.065776560606864 0 0,0 -0.7068143987643248,-0.4581485537897377 l 15.467095492517707 -23.419153933804868" fill="#c2ff1e" stroke="none" /><path d="M 88.1277618465304 117.32195027204791 l -11.536697435144882 16.83238633625631 a41.406484691956784,41.406484691956784 0 0,0 -0.5828552443895602,-0.4068782274033737 l 11.823947770708209 -16.631863293047804" fill="#ffd914" stroke="none" /><path d="M 87.83215693770417 117.11559508785305 l -16.368516369665723 23.024368159399387 a49.24977623422138,49.24977623422138 0 0,0 -0.6848509473917231,-0.4957792717125493 l 16.7613483274314 -22.73998811631377" fill="#bfff1e" stroke="none" /><path d="M 87.54013794807813 116.9041958592261 l -16.54304650817983 22.4438197724207 a48.88184774631522,48.88184774631522 0 0,0 -0.6711873663889993,-0.5036715125942862 l 16.925886863479597 -22.1565292325624" fill="#c4ff1e" stroke="none" /><path d="M 87.2517909369889 116.68781488649013 l -10.234095881480572 13.396760027749316 a37.8585259661822,37.8585259661822 0 0,0 -0.5130552381306875,-0.39895485635728645 l 10.462561064246488 -13.219104119771236" fill="#ffa80f" stroke="none" /><path d="M 86.96720088162412 116.46651593811092 l -11.054588983679126 13.967112055948116 a38.812471944721516,38.812471944721516 0 0,0 -0.5188843618613608,-0.4179765120187693 l 11.29272411589575 -13.775287250135936" fill="#ffb610" stroke="none" /><path d="M 86.40962598614128 116.0094264158162 l -17.992793954798564 21.19546603651585 a48.80266920288289,48.80266920288289 0 0,0 -0.6340176000424493,-0.5476493023353594 l 18.353991034603876 -20.88347260171577" fill="#c5ff1e" stroke="none" /><path d="M 85.60350026404147 115.28858382429668 l -19.10505481097987 20.288906144032303 a48.86831232514622,48.86831232514622 0 0,0 -0.6057983936934634,-0.5803411574442696 l 19.450525690538647 -19.95795285628245" fill="#c4ff1e" stroke="none" /><path d="M 85.34317274990678 115.03919595460226 l -11.988849607498118 12.301615857297767 a38.17737662193292,38.17737662193292 0 0,0 -0.4654150896883955,-0.4614372068416967 l 12.198256617316476 -12.093998640227412" fill="#ffad10" stroke="none" /><path d="M 85.08716467003676 114.78537596483092 l -21.384466449835347 21.20169433057825 a51.11324040735914,51.11324040735914 0 0,0 -0.6124174248782541,-0.6283942289555492 l 21.74527067586441 -20.831477409554964" fill="#a9ff21" stroke="none" /><path d="M 84.3458050057657 113.99807769240083 l -21.164812159668152 18.92570554188346 a49.392456815360575,49.392456815360575 0 0,0 -0.559755154569468,-0.6368986130635816 l 21.48657837819621 -18.559594651008577" fill="#beff1f" stroke="none" /><path d="M 84.1078160697243 113.72728997021213 l -15.593674519711684 13.46944465105224 a41.605548384706125,41.605548384706125 0 0,0 -0.46222860125808696,-0.5445041300247396 l 15.822597684476882 -13.199773738577948" fill="#ffdc14" stroke="none" /><path d="M 83.8745106332314 113.45245675266167 l -21.703803794583166 18.106085047972254 a49.26456111313542,49.26456111313542 0 0,0 -0.5361701019628573,-0.6540403443555808 l 22.011420715784652 -17.730842421918176" fill="#bfff1e" stroke="none" /><path d="M 83.4222238831116 112.89097897827486 l -23.056106474445254 17.928567848141924 a50.20646488102223,50.20646488102223 0 0,0 -0.5232183601544163,-0.6849096289771222 l 23.360476811953966 -17.53013730592393" fill="#b4ff20" stroke="none" /><path d="M 83.20337586046588 112.60449989151573 l -22.701710121055456 17.03578649977469 a49.38284101506291,49.38284101506291 0 0,0 -0.5029947600159401,-0.6824089949023453 l 22.990806900655226 -16.643571195603467" fill="#beff1f" stroke="none" /><path d="M 82.98947788004972 112.3143062007846 l -23.06045800314055 16.693993222462982 a49.468827391135186,49.468827391135186 0 0,0 -0.4920614826397932,-0.6921460978805806 l 23.343634584310305 -16.295669897872898" fill="#bdff1f" stroke="none" /><path d="M 82.78059297857968 112.02048342749411 l -23.124230698461776 16.142508945786147 a49.20125246262066,49.20125246262066 0 0,0 -0.47751048635344545,-0.6967020701634522 l 23.397930921630547 -15.743172140552643" fill="#c0ff1e" stroke="none" /><path d="M 82.576782715395 111.72311816256416 l -19.86118292227581 13.363490246538545 a44.93845146707345,44.93845146707345 0 0,0 -0.42515105044069096,-0.6437328779799636 l 20.087658411637225 -13.02057749021952" fill="#f6ff19" stroke="none" /><path d="M 81.99639281039703 110.81064883170644 l -34.39994998633929 20.656181575953397 a61.1252339103637,61.1252339103637 0 0,0 -0.5324482026987047,-0.9042134524779726 l 34.74947189916776 -20.062616955181866" fill="#37ff2e" stroke="none" /><line stroke="#e1ed5e" stroke-width="0.3" x1="26.387840678322732" x2="22.057713659400548" y1="142.50000000000003" y2="145.00000000000006" /><path d="M 25.521815274538298 143.00000000000003 a86.0,86.0 0 0,1 -11.493303480769221,-40.785679425670985" fill="none" id="id69" stroke="none" /><text fill="#e1ed5e" style="font-size:6.75px; font-family:Arial;" text-anchor="middle"><textPath startOffset="21.40746469413373" xlink:href="#id69">September</textPath></text><path d="M 81.4637452351635 109.86951160357371 l -49.20911541517052 26.201082244129793 a76.74974215821295,76.74974215821295 0 0,0 -0.6092172726679649,-1.168254448649214 l 49.65164075681344 -25.352481552376076" fill="#43ffe1" stroke="none" /><path d="M 81.1358732173502 109.22738970284198 l -28.573523279662663 13.976742073594085 a52.808733888748215,52.808733888748215 0 0,0 -0.3913397311411686,-0.8177495258281784 l 28.809242268763743 -13.484180045700803" fill="#94ff23" stroke="none" /><path d="M 80.83023694016515 108.57439118712176 l -39.294152234652856 17.57577449312153 a64.04576923314457,64.04576923314457 0 0,0 -0.44028757511553285,-1.0074641356233602 l 39.590073691785356 -16.89864828772232" fill="#32ff4b" stroke="none" /><path d="M 80.5471966667186 107.91128576633889 l -29.462772685993105 11.98225315879227 a52.80612150369625,52.80612150369625 0 0,0 -0.33429122679053375,-0.8426322667040708 l 29.664122587749766 -11.474719874874634" fill="#94ff23" stroke="none" /><path d="M 80.05021161711548 106.5578916946017 l -10.569517209398267 3.4744102440168607 a32.12592560569661,32.12592560569661 0 0,0 -0.16772071355711018,-0.5253827463963261 l 10.62760263873263 -3.292458463929143" fill="#ff5507" stroke="none" /><path d="M 79.94057633289273 106.21446072829308 l -34.02962941551674 10.54246618001625 a56.62526170169404,56.62526170169404 0 0,0 -0.27968478687891607,-0.9309796929728245 l 34.205590522399284 -9.9567488834527" fill="#68ff28" stroke="none" /><path d="M 79.64726062577567 105.17358676015961 l -43.34070264476111 11.017037129798949 a65.71902965026155,65.71902965026155 0 0,0 -0.2685482137732375,-1.095768354497461 l 43.52343838505064 -10.271412950693389" fill="#34ff60" stroke="none" /><path d="M 79.34024301695615 103.76489593502545 l -30.18299236253132 5.500346656829663 a51.680072380975915,51.680072380975915 0 0,0 -0.15155841379033058,-0.8741486556614619 l 30.272965593813883 -4.981404968247609" fill="#a2ff22" stroke="none" /><path d="M 79.17382384314188 102.69636545807758 l -28.48740699134703 3.688265172786957 a49.725174622192306,49.725174622192306 0 0,0 -0.10233420512119928,-0.8474740196843213 l 28.54652328272789 -3.1986974761792366" fill="#b9ff1f" stroke="none" /><path d="M 79.03789590574601 101.26102812881392 l -16.649478897279643 1.0015913061570243 a37.67957831288098,37.67957831288098 0 0,0 -0.033298718258746,-0.6459862383955984 l 16.66421920499496 -0.7156332743846953" fill="#ffa60f" stroke="none" /><path d="M 79.00696218219943 100.54070618675478 l -27.790840195891867 0.7157934625492989 a48.80005681783092,48.80005681783092 0 0,0 -0.01438107093362528,-0.8376252848034584 l 27.799032698424156 -0.23862126177678802" fill="#c5ff1e" stroke="none" /><line stroke="#e1ed5e" stroke-width="0.3" x1="15.003131293944662" x2="10.003315487706104" y1="100.72959589197737" y2="100.7725132973878" /><path d="M 14.003168132696942 100.73817937305945 a86.0,86.0 0 0,1 10.791469493833604,-42.45332614584628" fill="none" id="id70" stroke="none" /><text fill="#e1ed5e" style="font-size:6.75px; font-family:Arial;" text-anchor="middle"><textPath startOffset="22.145653131862435" xlink:href="#id70">October</textPath></text><path d="M 79.00077361379809 99.81974689727619 l -62.99767915860572 -0.540759308171441 a84.0,84.0 0 0,0 0.024754273605335886,-1.4418123361237905 l 62.97911345340172 1.6221185602642838" fill="#4dd2ff" stroke="none" /><path d="M 79.06263194458094 98.37931529534042 l -44.432650302448344 -3.43936814512978 a65.56556592412349,65.56556592412349 0 0,0 0.09649495802318842,-1.121417680802259 l 44.36706172172742 4.201606873307719" fill="#34ff5e" stroke="none" /><line stroke="#e1ed5e" stroke-width="0.3" x1="26.387840678322718" x2="22.05771365940052" y1="57.49999999999999" y2="54.99999999999999" /><path d="M 25.521815274538284 56.99999999999999 a86.0,86.0 0 0,1 29.574782752854787,-30.34633250058573" fill="none" id="id71" stroke="none" /><text fill="#e1ed5e" style="font-size:6.75px; font-family:Arial;" text-anchor="middle"><textPath startOffset="21.40746469413373" xlink:href="#id71">November</textPath></text><line stroke="#e1ed5e" stroke-width="0.3" x1="56.869717070023135" x2="54.33264160355391" y1="26.7553504044142" y2="22.446841604673864" /><path d="M 56.362301976729285 25.89364864446614 a86.0,86.0 0 0,1 42.16139366436587,-11.88097634709845" fill="none" id="id72" stroke="none" /><text fill="#e1ed5e" style="font-size:6.75px; font-family:Arial;" text-anchor="middle"><textPath startOffset="22.145653131862474" xlink:href="#id72">December</textPath></text></svg>