<?xml version="1.0" encoding="utf-8" ?>
<svg baseProfile="full" height="200mm" version="1.1" viewBox="0,0,200,200" width="200mm" xmlns="http://www.w3.org/2000/svg" xmlns:ev="http://www.w3.org/2001/xml-events" xmlns:xlink="http://www.w3.org/1999/xlink"><defs /><rect fill="#1a1a1a" height="200" width="200" x="0" y="0" /><text alignment-baseline="middle" fill="#e1ed5e" style="dominant-baseline: central; font-size:9.0px; font-family:Arial;" text-anchor="middle" x="100.0" y="100.0">2023</text><line stroke="#e1ed5e" stroke-width="0.3" x1="100.0" x2="100.0" y1="15.0" y2="10.0" /><path d="M 100.0 14.0 a86.0,86.0 0 0,1 42.46469731375804,11.215312516191453" fill="none" id="id49" stroke="none" /><text fill="#e1ed5e" style="font-size:6.75px; font-family:Arial;" text-anchor="middle"><textPath startOffset="22.20632615414155" xlink:href="#id49">January</textPath></text><line stroke="#e1ed5e" stroke-width="0.3" x1="143.23703022742887" x2="145.7803849466894" y1="26.81831364943548" y2="22.513508569990506" /><path d="M 143.74570117128098 25.957352633546492 a86.0,86.0 0 0,1 28.547481713284135,27.462654790039103" fill="none" id="id50" stroke="none" /><text fill="#e1ed5e" style="font-size:6.75px; font-family:Arial;" text-anchor="middle"><textPath startOffset="19.985693538727396" xlink:href="#id50">February</textPath></text><line stroke="#e1ed5e" stroke-width="0.3" x1="172.23445277983987" x2="176.4835382374775" y1="55.19839476539836" y2="52.563006222186495" /><path d="M 173.08426987136738 54.67131705675599 a86.0,86.0 0 0,1 12.851231095245387,41.99856678651699" fill="none" id="id51" stroke="none" /><text fill="#e1ed5e" style="font-size:6.75px; font-family:Arial;" text-anchor="middle"><textPath startOffset="22.20632615414155" xlink:href="#id51">March</textPath></text><line stroke="#e1ed5e" stroke-width="0.3" x1="184.98032266829074" x2="189.97916517819016" y1="98.17113171792111" y2="98.06355123074" /><path d="M 185.9800911702706 98.14961562048488 a86.0,86.0 0 0,1 -9.607161424134198,41.387399972396054" fill="none" id="id52" stroke="none" /><text fill="#e1ed5e" style="font-size:6.75px; font-family:Arial;" text-anchor="middle"><textPath startOffset="21.466115282336823" xlink:href="#id52">April</textPath></text><line stroke="#e1ed5e" stroke-width="0.3" x1="174.80103733775053" x2="179.2010983576182" y1="140.37084112569926" y2="142.7455964860345" /><path d="M 175.68104954172406 140.8457921977663 a86.0,86.0 0 0,1 -30.038265399797805,32.042727171017184" fill="none" id="id53" stroke="none" /><text fill="#e1ed5e" style="font-size:6.75px; font-family:Arial;" text-anchor="middle"><textPath startOffset="22.206326154141568" xlink:href="#id53">May</textPath></text><path d="M 112.04921762599082 117.19931262002967 l 17.100840185185216 24.41010740612137 a50.80422920690329,50.80422920690329 0 0,0 -0.7205566619674847,0.4956054424876684 l -16.67812663859485 -24.70085363797413" fill="#e5ff1a" stroke="none" /><line stroke="#e1ed5e" stroke-width="0.3" x1="143.8653032363475" x2="146.44561519142675" y1="172.8068346515853" y2="177.08958963109032" /><path d="M 144.38136562736335 173.6633856474863 a86.0,86.0 0 0,1 -40.68145358897372,12.25698825130547" fill="none" id="id54" stroke="none" /><text fill="#e1ed5e" style="font-size:6.75px; font-family:Arial;" text-anchor="middle"><textPath startOffset="21.466115282336833" xlink:href="#id54">June</textPath></text><path d="M 101.26447882468166 120.96189622390904 l 1.45244023540309 24.07782628832432 a45.12159408928314,45.12159408928314 0 0,0 -0.7756873256397633,0.04009417451921487 l -1.0377648413498473 -24.099260269605736" fill="#ffc312" stroke="none" /><line stroke="#e1ed5e" stroke-width="0.3" x1="102.19456741930631" x2="102.32365962044197" y1="184.97166512339345" y2="189.96999836594603" /><path d="M 102.22038585953345 185.97133177190398 a86.0,86.0 0 0,1 -42.740103519485714,-10.115201625700543" fill="none" id="id55" stroke="none" /><text fill="#e1ed5e" style="font-size:6.75px; font-family:Arial;" text-anchor="middle"><textPath startOffset="22.20632615414155" xlink:href="#id55">July</textPath></text><path d="M 100.54218724476979 120.99299961872073 l 0.3243841376884477 12.559860351757232 a33.56404859607074,33.56404859607074 0 0,0 -0.5776857206200653,0.009945383571068547 l -0.10813872717571446 -12.56358321260746" fill="#ff0000" stroke="none" /><path d="M 99.09653310690486 120.98055641714683 l -0.8265764706349572 19.19498590128933 a40.212774719246134,40.212774719246134 0 0,0 -0.6912995940880128,-0.03573229270900835 l 1.1568641331364589 -19.177913801818118" fill="#ff730a" stroke="none" /><path d="M 98.37488393609728 120.93702456842531 l -1.3448606323308394 17.32638100481193 a38.37849616175983,38.37849616175983 0 0,0 -0.6582015937710588,-0.0567924030784349 l 1.6429065438434398 -17.300664349454834" fill="#ff5407" stroke="none" /><path d="M 97.65516085044442 120.86867818915974 l -1.9667457069907317 17.503709474860987 a38.613856308494874,38.613856308494874 0 0,0 -0.6598787675882344,-0.07990212903623846 l 2.2677518976303555 -17.4672618170994" fill="#ff5808" stroke="none" /><path d="M 95.86986931433489 120.58985236759428 l -4.379630255018732 21.833677246211245 a43.26860173568152,43.26860173568152 0 0,0 -0.7289905117188276,-0.15276704957266593 l 4.754812228166946 -21.755054215912036" fill="#ffa50f" stroke="none" /><path d="M 95.51606077576429 120.51570834832081 l -4.687210064193865 21.445748890743744 a42.95199498156641,42.95199498156641 0 0,0 -0.7209387035419543,-0.16408330175124114 l 5.055668917128682 -21.361888855414815" fill="#ffa00e" stroke="none" /><path d="M 95.16358092515715 120.4354850818985 l -5.53171386480959 23.37333767242256 a45.019008560538346,45.019008560538346 0 0,0 -0.7525607180616319,-0.18496111478824584 l 5.933227867614432 -23.274655299320287" fill="#ffc111" stroke="none" /><path d="M 94.81253420990036 120.34920634021253 l -5.811699002564329 22.797926188948864 a44.52703304314353,44.52703304314353 0 0,0 -0.7410773143727277,-0.19572525427273402 l 6.203266759748547 -22.694509585372547" fill="#ffb911" stroke="none" /><path d="M 94.11515582081647 120.15858648285463 l -6.130594749680983 21.00040726480624 a42.876958135731364,42.876958135731364 0 0,0 -0.7067042014597394,-0.21292417871685723 l 6.491173925580969 -20.891767716983654" fill="#ff9f0e" stroke="none" /><path d="M 93.76903079525671 120.05430185196036 l -9.247651243883103 29.76345787832039 a52.16700945556126,52.16700945556126 0 0,0 -0.8552375164756583,-0.2738200452648899 l 9.758610105449701 -29.599864986395794" fill="#d2ff1c" stroke="none" /><path d="M 93.08242187328487 119.8279376855182 l -6.83685418269043 19.596557670355143 a41.75494272800883,41.75494272800883 0 0,0 -0.6765900122555926,-0.24260110647524236 l 7.173163755575749 -19.47596902283994" fill="#ff8d0d" stroke="none" /><path d="M 92.7421414339146 119.70592522655815 l -8.718911738463948 23.672853529825733 a46.22743380028391,46.22743380028391 0 0,0 -0.7443272374146968,-0.28144087164028897 l 9.125109196638928 -23.51926440807881" fill="#ffd413" stroke="none" /><path d="M 92.40401165467489 119.57807347666478 l -7.339268225504967 18.916397189092496 a41.290267142189464,41.290267142189464 0 0,0 -0.66040621417442,-0.26278926185095836 l 7.663795515721246 -18.787261082835474" fill="#ff850c" stroke="none" /><path d="M 91.7346041902142 119.30500536409082 l -18.420197595189617 43.02298662596826 a67.8004386482015,67.8004386482015 0 0,0 -1.0689201659788392,-0.4685831880970863 l 19.1580384358262 -42.699538884576725" fill="#34ff5e" stroke="none" /><path d="M 91.40352486487194 119.15986991738527 l -10.57222496500477 23.563431741817876 a46.826483619764815,46.826483619764815 0 0,0 -0.7325713578459733,-0.3362875800309624 l 10.976264318618162 -23.37795709145284" fill="#ffdd14" stroke="none" /><path d="M 90.7491055286396 118.85261126421891 l -19.915474261973 40.58620445470511 a66.20913742948912,66.20913742948912 0 0,0 -1.0188201921921185,-0.5108575947253744 l 20.611148361847878 -40.23737901907043" fill="#32ff47" stroke="none" /><path d="M 90.42595943632237 118.69057910512821 l -10.720708725432223 20.929121112764502 a44.5151378079807,44.5151378079807 0 0,0 -0.6789811245325225,-0.3552108337256825 l 11.079380752491241 -20.7414808600941" fill="#ffb911" stroke="none" /><path d="M 90.10565033884886 118.52300852407294 l -10.863141189994474 20.336663222094494 a44.05618588411026,44.05618588411026 0 0,0 -0.6658299236043527,-0.3630635626216537 l 11.211593925467467 -20.146659007713072" fill="#ffb210" stroke="none" /><line stroke="#e1ed5e" stroke-width="0.3" x1="58.666819895761336" x2="56.23545636021788" y1="174.27360380694188" y2="178.64263932499728" /><path d="M 58.180547188652646 175.14741091055294 a86.0,86.0 0 0,1 -31.652253787137756,-30.449443065178592" fill="none" id="id56" stroke="none" /><text fill="#e1ed5e" style="font-size:6.75px; font-family:Arial;" text-anchor="middle"><textPath startOffset="22.20632615414155" xlink:href="#id56">August</textPath></text><path d="M 89.7882731507175 118.34994917583269 l -10.379413464933453 18.651273420015617 a42.34484068959576,42.34484068959576 0 0,0 -0.6338644231094983,-0.3599247622868309 l 10.69892665496416 -18.46984549193415" fill="#ff960d" stroke="none" /><path d="M 89.4739219176387 118.17145234162733 l -13.251110051200875 22.87574848723138 a47.43656154722292,47.43656154722292 0 0,0 -0.7030372400683512,-0.41536679346565586 l 13.642915162297609 -22.644263121471973" fill="#ffe615" stroke="none" /><path d="M 89.1626897886671 117.98757091392108 l -12.98289173066583 21.548768201624515 a46.15760101236871,46.15760101236871 0 0,0 -0.6770238663350041,-0.41588335500353757 l 13.351894796933143 -21.3220963797926" fill="#ffd313" stroke="none" /><path d="M 88.8546689885994 117.79835938074946 l -12.801029821733058 20.44240130489086 a45.11966284190355,45.11966284190355 0 0,0 -0.6547039215921542,-0.4178630190040471 l 13.151015545372136 -20.21902385706301" fill="#ffc312" stroke="none" /><path d="M 87.95078237400918 117.19931262002967 l -17.894920910256012 25.543595327077522 a52.188194186547804,52.188194186547804 0 0,0 -0.7313123503817432,-0.5217719444501843 l 18.33196058848664 -25.231779120783116" fill="#d1ff1c" stroke="none" /><path d="M 87.65650970185807 116.9893568818739 l -15.381361442255942 21.1706278013535 a47.16833508881984,47.16833508881984 0 0,0 -0.6527536712925928,-0.4828915608859637 l 15.743500083967099 -20.90272629172777" fill="#ffe215" stroke="none" /><path d="M 87.36589467227662 116.77436683061367 l -14.08897123387566 18.705999800745733 a44.41823091043547,44.41823091043547 0 0,0 -0.6067768752069778,-0.46525063361539937 l 14.408876837576123 -18.460709825302967" fill="#ffb711" stroke="none" /><path d="M 87.07902340077011 116.55440617244103 l -14.744080910264547 18.890174605099205 a44.96302607142016,44.96302607142016 0 0,0 -0.606021315917598,-0.48145998510311994 l 15.067059718899502 -18.63358070599095" fill="#ffc011" stroke="none" /><path d="M 86.79598089348748 116.32954008644616 l -16.025827411789376 19.819298126447627 a46.48787402780919,46.48787402780919 0 0,0 -0.6179121096006228,-0.5084995989590603 l 16.36460964993469 -19.540503408631388" fill="#ffd814" stroke="none" /><path d="M 86.51685102203217 116.09983520530335 l -16.94358089457943 20.23183609676094 a47.3896215466868,47.3896215466868 0 0,0 -0.6208819494972059,-0.5291290671077592 l 17.289328320653695 -19.93718263943023" fill="#ffe615" stroke="none" /><path d="M 85.97065885151581 115.62618273729859 l -18.77279700746961 20.909546173565467 a49.1003029995786,49.1003029995786 0 0,0 -0.6240425234238799,-0.5700480492422907 l 19.129939080360344 -20.5833053577366" fill="#ffff18" stroke="none" /><path d="M 85.70375840098266 115.38237550388516 l -16.984322179329215 18.2746786721459 a45.94856870566804,45.94856870566804 0 0,0 -0.5747163076195483,-0.5434301408375143 l 17.29637432133958 -17.979613894562455" fill="#ffcf13" stroke="none" /><path d="M 85.44109423537348 115.13401014063109 l -18.27585886676075 18.997789936268273 a47.36139297875462,47.36139297875462 0 0,0 -0.5826580062671419,-0.5702534923867542 l 18.600166825403686 -18.680386340958947" fill="#ffe515" stroke="none" /><path d="M 85.18274418774928 114.88116024355367 l -20.222475111279284 20.30969138046562 a49.66063613383467,49.66063613383467 0 0,0 -0.600561148185393,-0.6083652723998221 l 20.56907688452021 -19.958585614085134" fill="#f6ff19" stroke="none" /><path d="M 84.9287848128048 114.62390073753433 l -22.615292857909886 21.944069791089756 a52.51180207549622,52.51180207549622 0 0,0 -0.6238738377676747,-0.6541292246846719 l 22.98967324705652 -21.551533449822582" fill="#cdff1d" stroke="none" /><path d="M 84.67929136418377 114.36230785411682 l -18.853254369537794 17.673871995337308 a46.84203845732887,46.84203845732887 0 0,0 -0.5463869322345195,-0.59299510221086 l 19.15468770976804 -17.346725638325104" fill="#ffdd14" stroke="none" /><path d="M 84.43433777217949 114.09645910891817 l -18.913970239271233 17.128728875322263 a46.51728087191769,46.51728087191769 0 0,0 -0.532381752189907,-0.5981365423255711 l 19.206010841109478 -16.800618163255827" fill="#ffd814" stroke="none" /><path d="M 83.95833913139862 113.55231037782056 l -19.836935117665814 16.758632654147014 a46.96836081271064,46.96836081271064 0 0,0 -0.51643725667136,-0.622081944374982 l 20.12246837423071 -16.41468945265827" fill="#ffdf14" stroke="none" /><path d="M 83.72743513129214 113.27417163493432 l -19.984815771707826 16.302400806914545 a46.7907179717508,46.7907179717508 0 0,0 -0.5037401531193125,-0.6284932946057338 l 20.262473836882 -15.95597967873055" fill="#ffdc14" stroke="none" /><path d="M 83.50135304334701 112.99209946851258 l -19.84868372253275 15.630134635871155 a46.264032818467356,46.264032818467356 0 0,0 -0.48729946035450145,-0.6299002411364998 l 20.11479000010532 -15.286156400621401" fill="#ffd413" stroke="none" /><path d="M 83.28015986056508 112.70617746262583 l -20.702169818761178 15.732533408509381 a47.0017776825872,47.0017776825872 0 0,0 -0.48398118424580366,-0.648371887372017 l 20.969912269702064 -15.373848641628056" fill="#ffe015" stroke="none" /><path d="M 82.44556493220864 111.52570212397912 l -52.6633052033741 34.57710637193735 a84.0,84.0 0 0,0 -0.7831805464918173,-1.2155136003142069 l 53.25069061324296 -33.6654711717017" fill="#4dd2ff" stroke="none" /><line stroke="#e1ed5e" stroke-width="0.3" x1="26.63291911575756" x2="22.317208475507996" y1="142.92168965132927" y2="145.44649492493687" /><path d="M 25.769776987707644 143.4266507060508 a86.0,86.0 0 0,1 -11.730757126820373,-40.83630448921669" fill="none" id="id57" stroke="none" /><text fill="#e1ed5e" style="font-size:6.75px; font-family:Arial;" text-anchor="middle"><textPath startOffset="21.46611528233685" xlink:href="#id57">September</textPath></text><path d="M 81.87401531095188 110.60418214915194 l -32.21135521591561 18.844497766070994 a58.31871515608956,58.31871515608956 0 0,0 -0.4994525956086101,-0.8708376994281931 l 32.5309598076766 -18.287240220784494" fill="#7dff26" stroke="none" /><path d="M 81.69416730710424 110.29060199501025 l -27.28822352035339 15.34004227558649 a52.304377328315425,52.304377328315425 0 0,0 -0.4344341569051176,-0.7886241847137713 l 27.548234086710025 -14.868047572474895" fill="#d0ff1d" stroke="none" /><path d="M 81.51974371655577 109.97397251340807 l -27.564398797615617 14.876771822820059 a52.322746063240466,52.322746063240466 0 0,0 -0.4209427004843187,-0.7962649529177693 l 27.81639400632482 -14.400091854816164" fill="#d0ff1d" stroke="none" /><path d="M 81.02952815118164 109.00673069616217 l -28.326427317967745 13.448716746243614 a52.35688866454711,52.35688866454711 0 0,0 -0.3795260684778675,-0.8174653872772212 l 28.55372800328544 -12.959131291687566" fill="#cfff1d" stroke="none" /><path d="M 80.87730276802145 108.67885076344099 l -28.417309259017863 12.897217540271033 a52.20707749539737,52.20707749539737 0 0,0 -0.36435298319406895,-0.8215197907242288 l 28.635103326943213 -12.40614941305411" fill="#d1ff1c" stroke="none" /><path d="M 80.45479744820244 107.68017299344265 l -57.93434884961543 22.76496343531525 a83.24654477832627,83.24654477832627 0 0,0 -0.512583544948223,-1.3381938885586282 l 58.31762667415716 -21.764345979923462" fill="#4cdaff" stroke="none" /><path d="M 79.67330655649465 105.27499134158121 l -60.27597863866266 15.642252209292337 a83.27257546486759,83.27257546486759 0 0,0 -0.34811380739648956,-1.3905416170099454 l 60.53630376035421 -14.602382752885" fill="#4cdaff" stroke="none" /><path d="M 79.18660465613746 102.79330883721812 l -61.800545251753405 8.294082072847662 a83.35462445436708,83.35462445436708 0 0,0 -0.17861106179725164,-1.4237058995153369 l 61.93415782279751 -7.229058419044916" fill="#4cd9ff" stroke="none" /><line stroke="#e1ed5e" stroke-width="0.3" x1="15.007084014347285" x2="10.007500721073583" y1="101.09737516637583" y2="101.16192664675087" /><path d="M 14.007167355692545 101.11028546245083 a86.0,86.0 0 0,1 10.666146001902534,-42.60595125391555" fill="none" id="id58" stroke="none" /><text fill="#e1ed5e" style="font-size:6.75px; font-family:Arial;" text-anchor="middle"><textPath startOffset="22.20632615414155" xlink:href="#id58">October</textPath></text><line stroke="#e1ed5e" stroke-width="0.3" x1="26.266209847984243" x2="21.928928074336255" y1="57.711370442889674" y2="55.22380399835377" /><path d="M 25.398753493254645 57.213857153982495 a86.0,86.0 0 0,1 29.58750427330803,-30.492523968695096" fill="none" id="id59" stroke="none" /><text fill="#e1ed5e" style="font-size:6.75px; font-family:Arial;" text-anchor="middle"><textPath startOffset="21.46611528233685" xlink:href="#id59">November</textPath></text><line stroke="#e1ed5e" stroke-width="0.3" x1="56.762969772571076" x2="54.21961505331055" y1="26.818313649435495" y2="22.513508569990535" /><path d="M 56.25429882871897 25.957352633546506 a86.0,86.0 0 0,1 42.265352541879196,-11.944610805530505" fill="none" id="id60" stroke="none" /><text fill="#e1ed5e" style="font-size:6.75px; font-family:Arial;" text-anchor="middle"><textPath startOffset="22.20632615414155" xlink:href="#id60">December</textPath></text></svg>