<?xml version="1.0" encoding="utf-8" ?>
<svg baseProfile="full" height="200mm" version="1.1" viewBox="0,0,200,200" width="200mm" xmlns="http://www.w3.org/2000/svg" xmlns:ev="http://www.w3.org/2001/xml-events" xmlns:xlink="http://www.w3.org/1999/xlink"><defs /><rect fill="#1a1a1a" height="200" width="200" x="0" y="0" /><text alignment-baseline="middle" fill="#e1ed5e" style="dominant-baseline: central; font-size:9.0px; font-family:Arial;" text-anchor="middle" x="100.0" y="100.0">2024</text><line stroke="#e1ed5e" stroke-width="0.3" x1="100.0" x2="100.0" y1="15.0" y2="10.0" /><path d="M 100.0 14.0 a86.0,86.0 0 0,1 42.35913384403234,11.155469271406648" fill="none" id="id61" stroke="none" /><text fill="#e1ed5e" style="font-size:6.75px; font-family:Arial;" text-anchor="middle"><textPath startOffset="22.145653131862478" xlink:href="#id61">January</textPath></text><line stroke="#e1ed5e" stroke-width="0.3" x1="143.13028292997686" x2="145.6673583964461" y1="26.7553504044142" y2="22.446841604673864" /><path d="M 143.63769802327073 25.89364864446614 a86.0,86.0 0 0,1 29.32050498858742,28.57503671076993" fill="none" id="id62" stroke="none" /><text fill="#e1ed5e" style="font-size:6.75px; font-family:Arial;" text-anchor="middle"><textPath startOffset="20.669276256404974" xlink:href="#id62">February</textPath></text><path d="M 112.16784306229584 82.88440491214696 l 14.655455129493882 -20.61473299256113 a46.29327146509911,46.29327146509911 0 0,0 0.6437387790343746,0.4660172323018478 l -15.007174918902225 20.36011498888621" fill="#efff19" stroke="none" /><path d="M 115.16444852881244 85.47280134310134 l 18.203622582414994 -17.438658651351478 a46.208702677475586,46.208702677475586 0 0,0 0.543819585588274,0.5775175544090074 l -18.500298001739527 17.123599636997973" fill="#f0ff19" stroke="none" /><line stroke="#e1ed5e" stroke-width="0.3" x1="172.87174338648825" x2="177.1583165268699" y1="56.24261187166439" y2="53.66864786411523" /><path d="M 173.72905801456457 55.72781907015455 a86.0,86.0 0 0,1 12.242430191666344,42.057860355516425" fill="none" id="id63" stroke="none" /><text fill="#e1ed5e" style="font-size:6.75px; font-family:Arial;" text-anchor="middle"><textPath startOffset="22.145653131862474" xlink:href="#id63">March</textPath></text><path d="M 119.58574465831526 92.42381321644754 l 17.66047446811986 -6.831450914470585 a39.935709124190055,39.935709124190055 0 0,0 0.24183794384326923,0.6415038781204236 l -17.775143095777572 6.5272787561560035" fill="#ffb811" stroke="none" /><path d="M 120.16314734710363 94.1308016681162 l 27.252778134353882 -7.932886528666151 a49.38387931057011,49.38387931057011 0 0,0 0.22994429458068547,0.8159911813189409 l -27.384940921009147 7.463887423444197" fill="#c7ff1e" stroke="none" /><path d="M 120.77682067341334 96.94652285012252 l 6.76069490547886 -0.9935893337900846 a27.833316571708735,27.833316571708735 0 0,0 0.06541556167945234,0.47331441758692855 l -6.776754983713524 0.8773866080030704" fill="#ff0000" stroke="none" /><path d="M 120.86939407059847 97.66154086499901 l 28.414931767884184 -3.1839523724673686 a49.59275957447365,49.59275957447365 0 0,0 0.08753737845988983,0.8468447290912431 l -28.46540153882574 2.695703121093194" fill="#c4ff1e" stroke="none" /><path d="M 120.93736805541906 98.37931529534042 l 31.402557629403898 -2.430756564170604 a52.496495092982826,52.496495092982826 0 0,0 0.061835968634187666,0.8990814128114764 l -31.43965755920315 1.8913317272047938" fill="#a0ff22" stroke="none" /><path d="M 120.98066250479742 99.09900007780936 l 31.60590425464282 -1.3572935205304668 a52.63503484199951,52.63503484199951 0 0,0 0.031017858623883243,0.9030511103819857 l -31.624546800263552 0.8145361455843612" fill="#9fff22" stroke="none" /><line stroke="#e1ed5e" stroke-width="0.3" x1="184.99686870605535" x2="189.99668451229388" y1="99.2704041080226" y2="99.22748670261217" /><path d="M 185.99683186730306 99.26182062694052 a86.0,86.0 0 0,1 -10.086455211305974,41.156179273409016" fill="none" id="id64" stroke="none" /><text fill="#e1ed5e" style="font-size:6.75px; font-family:Arial;" text-anchor="middle"><textPath startOffset="21.40746469413373" xlink:href="#id64">April</textPath></text><path d="M 120.99303781780057 100.54070618675476 l 31.667066429606038 0.8156313004087038 a52.677568572655446,52.677568572655446 0 0,0 -0.03104292377770142,0.9037808549867732 l -31.64839881883149 -1.3591184199595878" fill="#9eff22" stroke="none" /><path d="M 120.98066250479742 100.90099992219065 l 31.75817610238013 1.363832728857746 a52.78744703593058,52.78744703593058 0 0,0 -0.04665005303010599,0.9049985661222335 l -31.73008445989345 -1.9088030883567104" fill="#9dff22" stroke="none" /><path d="M 120.9064616781168 101.97986365728391 l 62.56698737975567 5.9251587555143725 a83.8469204977981,83.8469204977981 0 0,0 -0.1480002257444442,1.431767929095856 l -62.456054761529565 -6.99833120689316" fill="#4dd4ff" stroke="none" /><path d="M 120.82617615685814 102.69636545807757 l 31.31507217015798 4.054363042013112 a52.57644065911553,52.57644065911553 0 0,0 -0.12356836412080713,0.8940791272664087 l -31.240859289481964 -4.591330477479605" fill="#9fff22" stroke="none" /><path d="M 120.7213421655516 103.40968896794604 l 7.822346578668278 1.2871641527678834 a28.92754044789265,28.92754044789265 0 0,0 -0.08483370752305917,0.48929828131252207 l -7.799098053652985 -1.4212554670009934" fill="#ff1202" stroke="none" /><path d="M 120.51834098615036 104.47187691870673 l 61.555022958451104 13.415630756120176 a84.0,84.0 0 0,0 -0.3191565537693437,1.4062626642439322 l -61.315655543124095 -14.470327754303124" fill="#4dd2ff" stroke="none" /><path d="M 120.16314734710363 105.8691983318838 l 30.374738687414155 8.841643745721374 a52.63541392893332,52.63541392893332 0 0,0 -0.2599780395638654,0.8653823404332253 l -30.21848432784666 -9.361763689745324" fill="#9fff22" stroke="none" /><path d="M 119.94978838288452 106.5578916946017 l 30.30665051078203 9.962397989462623 a52.90207577702638,52.90207577702638 0 0,0 -0.2909981419680955,0.8602842997474088 l -30.13116694724157 -10.481183963684192" fill="#9bff22" stroke="none" /><path d="M 119.58574465831526 107.57618678355244 l 29.560049280664845 11.434462083944888 a52.6945332293206,52.6945332293206 0 0,0 -0.33358481283559366,0.840851642073875 l -29.359405792863125 -11.940214743232326" fill="#9eff22" stroke="none" /><path d="M 119.31412917781788 108.2440532568976 l 36.08893233522889 15.404219233342364 a60.23902403584478,60.23902403584478 0 0,0 -0.4141178119591242,0.9475825961297194 l -35.81918064125281 -16.021463899247927" fill="#46ff2c" stroke="none" /><path d="M 119.0197475246899 108.90220220490707 l 28.582511184294894 13.37805844984578 a52.55839656078605,52.55839656078605 0 0,0 -0.3894846034869874,0.8138730225272421 l -28.348647322847995 -13.866743974438126" fill="#a0ff22" stroke="none" /><line stroke="#e1ed5e" stroke-width="0.3" x1="174.33088141563837" x2="178.70328620479359" y1="141.23008692659167" y2="143.65538615756765" /><path d="M 175.20536237346943 141.71514677278685 a86.0,86.0 0 0,1 -30.301960400862466,31.631185727798858" fill="none" id="id65" stroke="none" /><text fill="#e1ed5e" style="font-size:6.75px; font-family:Arial;" text-anchor="middle"><textPath startOffset="22.145653131862474" xlink:href="#id65">May</textPath></text><line stroke="#e1ed5e" stroke-width="0.3" x1="143.1302829299769" x2="145.66735839644613" y1="173.24464959558577" y2="177.55315839532614" /><path d="M 143.63769802327073 174.10635135553383 a86.0,86.0 0 0,1 -40.68552437913181,11.842963189579606" fill="none" id="id66" stroke="none" /><text fill="#e1ed5e" style="font-size:6.75px; font-family:Arial;" text-anchor="middle"><textPath startOffset="21.407464694133747" xlink:href="#id66">June</textPath></text><line stroke="#e1ed5e" stroke-width="0.3" x1="101.45913802915013" x2="101.54496967792366" y1="184.9874750549273" y2="189.98673829345242" /><path d="M 101.47630435890484 185.9873277026323 a86.0,86.0 0 0,1 -42.54439059252881,-10.42667462771756" fill="none" id="id67" stroke="none" /><text fill="#e1ed5e" style="font-size:6.75px; font-family:Arial;" text-anchor="middle"><textPath startOffset="22.145653131862474" xlink:href="#id67">July</textPath></text><line stroke="#e1ed5e" stroke-width="0.3" x1="58.13341422392154" x2="55.67067388415222" y1="173.97424548756322" y2="178.32567169271397" /><path d="M 57.64086615596768 174.84453072859336 a86.0,86.0 0 0,1 -31.369924170532247,-30.572349798747897" fill="none" id="id68" stroke="none" /><text fill="#e1ed5e" style="font-size:6.75px; font-family:Arial;" text-anchor="middle"><textPath startOffset="22.145653131862474" xlink:href="#id68">August</textPath></text><line stroke="#e1ed5e" stroke-width="0.3" x1="26.387840678322732" x2="22.057713659400548" y1="142.50000000000003" y2="145.00000000000006" /><path d="M 25.521815274538298 143.00000000000003 a86.0,86.0 0 0,1 -11.493303480769221,-40.785679425670985" fill="none" id="id69" stroke="none" /><text fill="#e1ed5e" style="font-size:6.75px; font-family:Arial;" text-anchor="middle"><textPath startOffset="21.40746469413373" xlink:href="#id69">September</textPath></text><line stroke="#e1ed5e" stroke-width="0.3" x1="15.003131293944662" x2="10.003315487706104" y1="100.72959589197737" y2="100.7725132973878" /><path d="M 14.003168132696942 100.73817937305945 a86.0,86.0 0 0,1 10.791469493833604,-42.45332614584628" fill="none" id="id70" stroke="none" /><text fill="#e1ed5e" style="font-size:6.75px; font-family:Arial;" text-anchor="middle"><textPath startOffset="22.145653131862435" xlink:href="#id70">October</textPath></text><line stroke="#e1ed5e" stroke-width="0.3" x1="26.387840678322718" x2="22.05771365940052" y1="57.49999999999999" y2="54.99999999999999" /><path d="M 25.521815274538284 56.99999999999999 a86.0,86.0 0 0,1 29.574782752854787,-30.34633250058573" fill="none" id="id71" stroke="none" /><text fill="#e1ed5e" style="font-size:6.75px; font-family:Arial;" text-anchor="middle"><textPath startOffset="21.40746469413373" xlink:href="#id71">November</textPath></text><line stroke="#e1ed5e" stroke-width="0.3" x1="56.869717070023135" x2="54.33264160355391" y1="26.7553504044142" y2="22.446841604673864" /><path d="M 56.362301976729285 25.89364864446614 a86.0,86.0 0 0,1 42.16139366436587,-11.88097634709845" fill="none" id="id72" stroke="none" /><text fill="#e1ed5e" style="font-size:6.75px; font-family:Arial;" text-anchor="middle"><textPath startOffset="22.145653131862474" xlink:href="#id72">December</textPath></text></svg>