<?xml version="1.0" encoding="utf-8" ?>
<svg baseProfile="full" height="200mm" version="1.1" viewBox="0,0,200,200" width="200mm" xmlns="http://www.w3.org/2000/svg" xmlns:ev="http://www.w3.org/2001/xml-events" xmlns:xlink="http://www.w3.org/1999/xlink"><defs /><rect fill="#1a1a1a" height="200" width="200" x="0" y="0" /><text alignment-baseline="middle" fill="#e1ed5e" style="dominant-baseline: central; font-size:9.0px; font-family:Arial;" text-anchor="middle" x="100.0" y="100.0">2025</text><line stroke="#e1ed5e" stroke-width="0.3" x1="100.0" x2="100.0" y1="15.0" y2="10.0" /><path d="M 100.0 14.0 a86.0,86.0 0 0,1 42.46469731375804,11.215312516191453" fill="none" id="id73" stroke="none" /><text fill="#e1ed5e" style="font-size:6.75px; font-family:Arial;" text-anchor="middle"><textPath startOffset="22.20632615414155" xlink:href="#id73">January</textPath></text><path d="M 100.0 79.0 l 0.0 -18.841739581890124 a39.841739581890124,39.841739581890124 0 0,0 0.6858100532910908,0.005902983646637473 l -0.3243295740185624 18.838947974852047" fill="#ff820c" stroke="none" /><path d="M 104.66035177308747 79.52364482259891 l 5.336163907066822 -23.445695253502407 a45.045275443695544,45.045275443695544 0 0,0 0.7545648054924189,0.17858111044896194 l -5.738952399521764 23.35036823091258" fill="#ffd313" stroke="none" /><path d="M 105.71112130821622 79.79150937346287 l 8.76681071743408 -31.02088060238145 a53.23588068445661,53.23588068445661 0 0,0 0.8796843507435667,0.2568039845152366 l -9.299485285901074 30.86537828894751" fill="#b6ff1f" stroke="none" /><path d="M 108.09893153111575 80.62456947434976 l 11.892930880111136 -28.451982231069486 a51.83759228273496,51.83759228273496 0 0,0 0.8203082796474398,0.3512131952028534 l -12.38092291754889 28.24304950790384" fill="#c9ff1d" stroke="none" /><line stroke="#e1ed5e" stroke-width="0.3" x1="143.23703022742887" x2="145.7803849466894" y1="26.81831364943548" y2="22.513508569990506" /><path d="M 143.74570117128098 25.957352633546492 a86.0,86.0 0 0,1 28.547481713284135,27.462654790039103" fill="none" id="id74" stroke="none" /><text fill="#e1ed5e" style="font-size:6.75px; font-family:Arial;" text-anchor="middle"><textPath startOffset="19.985693538727396" xlink:href="#id74">February</textPath></text><path d="M 113.6212207817346 84.01681056812373 l 14.765843146420854 -17.32629342937367 a43.764678074276844,43.764678074276844 0 0,0 0.5691621420149046,0.49357180093844405 l -15.061899087082523 17.069556635015555" fill="#ffbf11" stroke="none" /><line stroke="#e1ed5e" stroke-width="0.3" x1="172.23445277983987" x2="176.4835382374775" y1="55.19839476539836" y2="52.563006222186495" /><path d="M 173.08426987136738 54.67131705675599 a86.0,86.0 0 0,1 12.851231095245387,41.99856678651699" fill="none" id="id75" stroke="none" /><text fill="#e1ed5e" style="font-size:6.75px; font-family:Arial;" text-anchor="middle"><textPath startOffset="22.20632615414155" xlink:href="#id75">March</textPath></text><path d="M 119.47837535516314 92.15188598940014 l 14.88802880888643 -5.998598207230064 a37.05106171771874,37.05106171771874 0 0,0 0.2332566353720772,0.5936126945044846 l -14.989078994140208 5.741436507829794" fill="#ff5407" stroke="none" /><path d="M 120.53481517161879 95.60439243477599 l 10.841930964274441 -2.320784159482863 a32.087538326833396,32.087538326833396 0 0,0 0.11096283931662683,0.5410942121581548 l -10.880273099506065 2.1338142911612965" fill="#ff0000" stroke="none" /><path d="M 120.78858239683441 97.02765380044208 l 24.671868433244178 -3.527577444853239 a45.92277862953382,45.92277862953382 0 0,0 0.10515004432806116,0.783489964970799 l -24.728934476630076 3.1023691378177753" fill="#ffe015" stroke="none" /><line stroke="#e1ed5e" stroke-width="0.3" x1="184.98032266829074" x2="189.97916517819016" y1="98.17113171792111" y2="98.06355123074" /><path d="M 185.9800911702706 98.14961562048488 a86.0,86.0 0 0,1 -9.607161424134198,41.387399972396054" fill="none" id="id76" stroke="none" /><text fill="#e1ed5e" style="font-size:6.75px; font-family:Arial;" text-anchor="middle"><textPath startOffset="21.466115282336823" xlink:href="#id76">April</textPath></text><path d="M 120.99980553446 99.90962569577887 l 24.93837411390882 -0.107324241896067 a45.938605051970654,45.938605051970654 0 0,0 -0.0034031815426572055,0.7907795386110341 l -24.936526635076664 -0.3219647749186519" fill="#ffe015" stroke="none" /><path d="M 120.99824983174949 100.27111621757518 l 62.994749495248485 0.8133486527255557 a84.0,84.0 0 0,0 -0.03111174925997018,1.4456407368395405 l -62.97141568330351 -1.8975792053552112" fill="#4dd2ff" stroke="none" /><path d="M 120.92983693683757 101.71520430193887 l 19.1299161458989 1.5677004349434454 a40.19404533710508,40.19404533710508 0 0,0 -0.062445093160980514,0.6890763995657321 l -19.100096456460843 -1.896758223057748" fill="#ff870c" stroke="none" /><path d="M 120.49622156327973 104.57218783832717 l 22.108706786378786 4.931892445528731 a43.6521186395519,43.6521186395519 0 0,0 -0.16990949873949232,0.731965673625007 l -22.02053672170874 -5.311726776502303" fill="#ffbe11" stroke="none" /><path d="M 119.79798401119884 107.00284435728193 l 12.190710996209285 4.312037612656374 a33.930858554870255,33.930858554870255 0 0,0 -0.1995065635614157,0.5489563782614538 l -12.114680171642643 -4.521241787923959" fill="#ff2003" stroke="none" /><path d="M 119.26925614724726 108.34839909993367 l 22.8633208162762 9.905526475206582 a45.91687969026192,45.91687969026192 0 0,0 -0.3204537180918778,0.7225385369862941 l -22.689426013453048 -10.297613348685562" fill="#ffe015" stroke="none" /><line stroke="#e1ed5e" stroke-width="0.3" x1="174.80103733775053" x2="179.2010983576182" y1="140.37084112569926" y2="142.7455964860345" /><path d="M 175.68104954172406 140.8457921977663 a86.0,86.0 0 0,1 -30.038265399797805,32.042727171017184" fill="none" id="id77" stroke="none" /><text fill="#e1ed5e" style="font-size:6.75px; font-family:Arial;" text-anchor="middle"><textPath startOffset="22.206326154141568" xlink:href="#id77">May</textPath></text><path d="M 113.75828350139079 115.86535959552629 l 10.118861554058943 11.668561505965664 a36.444956677463225,36.444956677463225 0 0,0 -0.4774888469820954,0.4069263542974512 l -9.9165072304998 -11.841012250486063" fill="#ff4a06" stroke="none" /><path d="M 111.45004920935366 117.60387380957326 l 8.900502501397863 13.68407419143691 a37.32399556647022,37.32399556647022 0 0,0 -0.5415857461630077,0.3456656474439327 l -8.663634953187925 -13.83525426770465" fill="#ff5908" stroke="none" /><line stroke="#e1ed5e" stroke-width="0.3" x1="143.8653032363475" x2="146.44561519142675" y1="172.8068346515853" y2="177.08958963109032" /><path d="M 144.38136562736335 173.6633856474863 a86.0,86.0 0 0,1 -40.68145358897372,12.25698825130547" fill="none" id="id78" stroke="none" /><text fill="#e1ed5e" style="font-size:6.75px; font-family:Arial;" text-anchor="middle"><textPath startOffset="21.466115282336833" xlink:href="#id78">June</textPath></text><line stroke="#e1ed5e" stroke-width="0.3" x1="102.19456741930631" x2="102.32365962044197" y1="184.97166512339345" y2="189.96999836594603" /><path d="M 102.22038585953345 185.97133177190398 a86.0,86.0 0 0,1 -42.740103519485714,-10.115201625700543" fill="none" id="id79" stroke="none" /><text fill="#e1ed5e" style="font-size:6.75px; font-family:Arial;" text-anchor="middle"><textPath startOffset="22.20632615414155" xlink:href="#id79">July</textPath></text><path d="M 96.22490169976321 120.6578951692458 l -3.7395752593642584 20.4635078457709 a41.80239352753371,41.80239352753371 0 0,0 -0.7067239757472871,-0.13544533196920266 l 4.09126684968324 -20.396105315453227" fill="#ffa10e" stroke="none" /><path d="M 95.16358092515715 120.4354850818985 l -4.0045685132903275 16.92063877145386 a38.38805870163958,38.38805870163958 0 0,0 -0.6417143767759709,-0.15771778097831504 l 4.295236174809509 -16.849199732161516" fill="#ff6a09" stroke="none" /><path d="M 93.76903079525671 120.05430185196036 l -5.746589241762979 18.495330579681575 a40.36751251878388,40.36751251878388 0 0,0 -0.6617939481900733,-0.21188552344639075 l 6.064104535043993 -18.393672209575477" fill="#ff8a0c" stroke="none" /><path d="M 92.7421414339146 119.70592522655815 l -6.793433322258005 18.44495698849494 a40.65622483111632,40.65622483111632 0 0,0 -0.6546228727078888,-0.2475223566055415 l 7.109926415726176 -18.325286381782764" fill="#ff8f0d" stroke="none" /><line stroke="#e1ed5e" stroke-width="0.3" x1="58.666819895761336" x2="56.23545636021788" y1="174.27360380694188" y2="178.64263932499728" /><path d="M 58.180547188652646 175.14741091055294 a86.0,86.0 0 0,1 -31.652253787137756,-30.449443065178592" fill="none" id="id80" stroke="none" /><text fill="#e1ed5e" style="font-size:6.75px; font-family:Arial;" text-anchor="middle"><textPath startOffset="22.20632615414155" xlink:href="#id80">August</textPath></text><line stroke="#e1ed5e" stroke-width="0.3" x1="26.63291911575756" x2="22.317208475507996" y1="142.92168965132927" y2="145.44649492493687" /><path d="M 25.769776987707644 143.4266507060508 a86.0,86.0 0 0,1 -11.730757126820373,-40.83630448921669" fill="none" id="id81" stroke="none" /><text fill="#e1ed5e" style="font-size:6.75px; font-family:Arial;" text-anchor="middle"><textPath startOffset="21.46611528233685" xlink:href="#id81">September</textPath></text><line stroke="#e1ed5e" stroke-width="0.3" x1="15.007084014347285" x2="10.007500721073583" y1="101.09737516637583" y2="101.16192664675087" /><path d="M 14.007167355692545 101.11028546245083 a86.0,86.0 0 0,1 10.666146001902534,-42.60595125391555" fill="none" id="id82" stroke="none" /><text fill="#e1ed5e" style="font-size:6.75px; font-family:Arial;" text-anchor="middle"><textPath startOffset="22.20632615414155" xlink:href="#id82">October</textPath></text><line stroke="#e1ed5e" stroke-width="0.3" x1="26.266209847984243" x2="21.928928074336255" y1="57.711370442889674" y2="55.22380399835377" /><path d="M 25.398753493254645 57.213857153982495 a86.0,86.0 0 0,1 29.58750427330803,-30.492523968695096" fill="none" id="id83" stroke="none" /><text fill="#e1ed5e" style="font-size:6.75px; font-family:Arial;" text-anchor="middle"><textPath startOffset="21.46611528233685" xlink:href="#id83">November</textPath></text><line stroke="#e1ed5e" stroke-width="0.3" x1="56.762969772571076" x2="54.21961505331055" y1="26.818313649435495" y2="22.513508569990535" /><path d="M 56.25429882871897 25.957352633546506 a86.0,86.0 0 0,1 42.265352541879196,-11.944610805530505" fill="none" id="id84" stroke="none" /><text fill="#e1ed5e" style="font-size:6.75px; font-family:Arial;" text-anchor="middle"><textPath startOffset="22.20632615414155" xlink:href="#id84">December</textPath></text></svg>