<?xml version="1.0" encoding="utf-8" ?>
<svg baseProfile="full" height="200mm" version="1.1" viewBox="0,0,200,200" width="200mm" xmlns="http://www.w3.org/2000/svg" xmlns:ev="http://www.w3.org/2001/xml-events" xmlns:xlink="http://www.w3.org/1999/xlink"><defs /><rect fill="#1a1a1a" height="200" width="200" x="0" y="0" /><text alignment-baseline="middle" fill="#e1ed5e" style="dominant-baseline: central; font-size:9.0px; font-family:Arial;" text-anchor="middle" x="100.0" y="100.0">2023</text><line stroke="#e1ed5e" stroke-width="0.3" x1="100.0" x2="100.0" y1="15.0" y2="10.0" /><path d="M 100.0 14.0 a86.0,86.0 0 0,1 42.46469731375804,11.215312516191453" fill="none" id="id49" stroke="none" /><text fill="#e1ed5e" style="font-size:6.75px; font-family:Arial;" text-anchor="middle"><textPath startOffset="22.20632615414155" xlink:href="#id49">January</textPath></text><line stroke="#e1ed5e" stroke-width="0.3" x1="143.23703022742887" x2="145.7803849466894" y1="26.81831364943548" y2="22.513508569990506" /><path d="M 143.74570117128098 25.957352633546492 a86.0,86.0 0 0,1 28.547481713284135,27.462654790039103" fill="none" id="id50" stroke="none" /><text fill="#e1ed5e" style="font-size:6.75px; font-family:Arial;" text-anchor="middle"><textPath startOffset="19.985693538727396" xlink:href="#id50">February</textPath></text><line stroke="#e1ed5e" stroke-width="0.3" x1="172.23445277983987" x2="176.4835382374775" y1="55.19839476539836" y2="52.563006222186495" /><path d="M 173.08426987136738 54.67131705675599 a86.0,86.0 0 0,1 12.851231095245387,41.99856678651699" fill="none" id="id51" stroke="none" /><text fill="#e1ed5e" style="font-size:6.75px; font-family:Arial;" text-anchor="middle"><textPath startOffset="22.20632615414155" xlink:href="#id51">March</textPath></text><line stroke="#e1ed5e" stroke-width="0.3" x1="184.98032266829074" x2="189.97916517819016" y1="98.17113171792111" y2="98.06355123074" /><path d="M 185.9800911702706 98.14961562048488 a86.0,86.0 0 0,1 -9.607161424134198,41.387399972396054" fill="none" id="id52" stroke="none" /><text fill="#e1ed5e" style="font-size:6.75px; font-family:Arial;" text-anchor="middle"><textPath startOffset="21.466115282336823" xlink:href="#id52">April</textPath></text><line stroke="#e1ed5e" stroke-width="0.3" x1="174.80103733775053" x2="179.2010983576182" y1="140.37084112569926" y2="142.7455964860345" /><path d="M 175.68104954172406 140.8457921977663 a86.0,86.0 0 0,1 -30.038265399797805,32.042727171017184" fill="none" id="id53" stroke="none" /><text fill="#e1ed5e" style="font-size:6.75px; font-family:Arial;" text-anchor="middle"><textPath startOffset="22.206326154141568" xlink:href="#id53">May</textPath></text><path d="M 112.04921762599082 117.19931262002967 l 11.478403248492489 16.38451988980092 a41.00515516446411,41.00515516446411 0 0,0 -0.5815763409860026,0.4000135104263786 l -11.194670022883603 -16.579674189592392" fill="#ffb510" stroke="none" /><line stroke="#e1ed5e" stroke-width="0.3" x1="143.8653032363475" x2="146.44561519142675" y1="172.8068346515853" y2="177.08958963109032" /><path d="M 144.38136562736335 173.6633856474863 a86.0,86.0 0 0,1 -40.68145358897372,12.25698825130547" fill="none" id="id54" stroke="none" /><text fill="#e1ed5e" style="font-size:6.75px; font-family:Arial;" text-anchor="middle"><textPath startOffset="21.466115282336833" xlink:href="#id54">June</textPath></text><path d="M 101.26447882468166 120.96189622390904 l 0.9749050067572139 16.161486599001652 a37.190864364261415,37.190864364261415 0 0,0 -0.6393497991197287,0.033047081700850356 l -0.6965671392240057 -16.175873487464703" fill="#ff7c0b" stroke="none" /><line stroke="#e1ed5e" stroke-width="0.3" x1="102.19456741930631" x2="102.32365962044197" y1="184.97166512339345" y2="189.96999836594603" /><path d="M 102.22038585953345 185.97133177190398 a86.0,86.0 0 0,1 -42.740103519485714,-10.115201625700543" fill="none" id="id55" stroke="none" /><text fill="#e1ed5e" style="font-size:6.75px; font-family:Arial;" text-anchor="middle"><textPath startOffset="22.20632615414155" xlink:href="#id55">July</textPath></text><path d="M 100.54218724476979 120.99299961872073 l 0.217732690293672 8.430412792648456 a29.43322402043686,29.43322402043686 0 0,0 -0.5065882674954892,0.008721376438797715 l -0.07258473290551484 -8.432911646366412" fill="#ff0000" stroke="none" /><path d="M 99.09653310690486 120.98055641714683 l -0.5548135613759604 12.88403295617025 a33.89597314294535,33.89597314294535 0 0,0 -0.5827071779685336,-0.030119305182408337 l 0.7765088077579828 -12.87257384422564" fill="#ff4806" stroke="none" /><path d="M 98.37488393609728 120.93702456842531 l -0.9026955683902128 11.629790458046884 a32.66477112451289,32.66477112451289 0 0,0 -0.5602096633412061,-0.04833724699240774 l 1.1027495494729607 -11.612528958775814" fill="#ff3505" stroke="none" /><path d="M 97.65516085044442 120.86867818915974 l -1.3201164426785479 11.748816638317528 a32.822749249774226,32.822749249774226 0 0,0 -0.5609135526573598,-0.06791881973473334 l 1.522157418387297 -11.724352289857446" fill="#ff3705" stroke="none" /><path d="M 95.86986931433489 120.58985236759428 l -2.93968960600859 14.65517185796291 a35.94710129644216,35.94710129644216 0 0,0 -0.6056376845497142,-0.12691726530230402 l 3.1915187519876906 -14.602398611934065" fill="#ff6909" stroke="none" /><path d="M 95.51606077576429 120.51570834832081 l -3.1461429172245565 14.394787102163717 a35.734588931226455,35.734588931226455 0 0,0 -0.5997963127612459,-0.13651168801531552 l 3.393459379378665 -14.338498680570716" fill="#ff6509" stroke="none" /><path d="M 95.16358092515715 120.4354850818985 l -3.712989637232473 15.68862068541349 a37.122007041835076,37.122007041835076 0 0,0 -0.6205504112274101,-0.15251619316320236 l 3.9824933332030934 -15.622383233936258" fill="#ff7b0b" stroke="none" /><path d="M 94.81253420990036 120.34920634021253 l -3.900920889728344 15.302393753309511 a36.79178388812502,36.79178388812502 0 0,0 -0.6123371473768552,-0.16172380606795453 l 4.163748479916689 -15.232978597937974" fill="#ff760a" stroke="none" /><path d="M 94.11515582081647 120.15858648285463 l -4.114969669788012 14.095865487173217 a35.68422279917314,35.68422279917314 0 0,0 -0.5881525013544651,-0.17720552396956302 l 4.356997145582723 -14.022944594097929" fill="#ff6509" stroke="none" /><path d="M 93.76903079525671 120.05430185196036 l -6.207196192071994 19.977788687414826 a41.91987871393792,41.91987871393792 0 0,0 -0.6872437836945461,-0.22003375709560655 l 6.55016132085748 -19.867982083659513" fill="#ffc212" stroke="none" /><path d="M 93.08242187328487 119.8279376855182 l -4.589024188884514 13.15357542593388 a34.931105106627356,34.931105106627356 0 0,0 -0.5660177044463027,-0.2029538108691091 l 4.814761453960543 -13.072634074024812" fill="#ff5908" stroke="none" /><path d="M 92.7421414339146 119.70592522655815 l -5.852296363122811 15.889661321625615 a37.93312462712613,37.93312462712613 0 0,0 -0.6107770979068016,-0.23094363630958298 l 6.124943681789896 -15.7865694352094" fill="#ff870c" stroke="none" /><path d="M 92.40401165467489 119.57807347666478 l -4.926253875770111 12.69703901058367 a34.619206176749934,34.619206176749934 0 0,0 -0.5537077009015156,-0.22033172141331525 l 5.144082652713484 -12.610360444764288" fill="#ff5407" stroke="none" /><path d="M 91.7346041902142 119.30500536409082 l -12.363980577847142 28.8778319719742 a52.41332830393743,52.41332830393743 0 0,0 -0.8263318749433244,-0.36223961031983287 l 12.85923312744821 -28.660727808359912" fill="#adff20" stroke="none" /><path d="M 91.40352486487194 119.15986991738527 l -7.096274806850362 15.816215374331557 a38.33521805174602,38.33521805174602 0 0,0 -0.5997307628206249,-0.2753069782745664 l 7.367473565438407 -15.691721325722916" fill="#ff8d0d" stroke="none" /><path d="M 90.7491055286396 118.85261126421891 l -13.367638197211972 27.242218277699294 a51.345217212295154,51.345217212295154 0 0,0 -0.7900955381587165,-0.39617030494709754 l 13.834587643053448 -27.008080131842895" fill="#baff1f" stroke="none" /><path d="M 90.42595943632237 118.69057910512821 l -7.195939879418865 14.04801689082897 a36.78379958416942,36.78379958416942 0 0,0 -0.5610564593548368,-0.2935182223685883 l 7.436687241300198 -13.922069249515665" fill="#ff760a" stroke="none" /><path d="M 90.10565033884886 118.52300852407294 l -7.2915432092095545 13.650348091915044 a36.47574248306745,36.47574248306745 0 0,0 -0.551265170679977,-0.3005937247951559 l 7.525431191758172 -13.522813715360122" fill="#ff710a" stroke="none" /><line stroke="#e1ed5e" stroke-width="0.3" x1="58.666819895761336" x2="56.23545636021788" y1="174.27360380694188" y2="178.64263932499728" /><path d="M 58.180547188652646 175.14741091055294 a86.0,86.0 0 0,1 -31.652253787137756,-30.449443065178592" fill="none" id="id56" stroke="none" /><text fill="#e1ed5e" style="font-size:6.75px; font-family:Arial;" text-anchor="middle"><textPath startOffset="22.20632615414155" xlink:href="#id56">August</textPath></text><path d="M 89.7882731507175 118.34994917583269 l -6.966856127721215 12.519082986243937 a35.327055633340336,35.327055633340336 0 0,0 -0.5288144523516022,-0.3002746472546725 l 7.181319346994025 -12.397305173194631" fill="#ff5f08" stroke="none" /><path d="M 89.4739219176387 118.17145234162733 l -8.894392498305676 15.354629533057057 a38.74471374836304,38.74471374836304 0 0,0 -0.5742190355380449,-0.3392587276247137 l 9.157379404872103 -15.199252233138594" fill="#ff930d" stroke="none" /><path d="M 89.1626897886671 117.98757091392108 l -8.714359353244076 14.463935587259542 a37.886251555921625,37.886251555921625 0 0,0 -0.5557025483724187,-0.34135789252484167 l 8.962041101548802 -14.31178922790632" fill="#ff860c" stroke="none" /><path d="M 88.8546689885994 117.79835938074946 l -8.592290244143847 13.721321467487007 a37.18956807495893,37.18956807495893 0 0,0 -0.5396351507835595,-0.344420685183543 l 8.82720719697433 -13.571386353479658" fill="#ff7c0b" stroke="none" /><path d="M 87.95078237400918 117.19931262002967 l -12.011405058667533 17.145338147450122 a41.93409830094892,41.93409830094892 0 0,0 -0.5876218648222709,-0.4192525982225143 l 12.304754251338691 -16.93604128738339" fill="#ffc312" stroke="none" /><path d="M 87.65650970185807 116.9893568818739 l -10.324257009195337 14.210120689754257 a38.56467514101246,38.56467514101246 0 0,0 -0.5336892479477997,-0.39481054692383394 l 10.5673312275617 -14.030300194090657" fill="#ff910d" stroke="none" /><path d="M 87.36589467227662 116.77436683061367 l -9.456780569117052 12.555816354870762 a36.71875386503873,36.71875386503873 0 0,0 -0.5015978861618265,-0.3846038698777542 l 9.671507183772366 -12.391173143165641" fill="#ff750a" stroke="none" /><path d="M 87.07902340077011 116.55440617244103 l -9.896502416473735 12.679437922565006 a37.084430549803436,37.084430549803436 0 0,0 -0.4998319144745413,-0.397096702337279 l 10.113291823665634 -12.507207306222595" fill="#ff7a0b" stroke="none" /><path d="M 86.79598089348748 116.32954008644616 l -10.75683460176555 13.303082979194196 a38.10793697092279,38.10793697092279 0 0,0 -0.506526835624799,-0.4168371015478033 l 10.984231565935039 -13.11595075878921" fill="#ff8a0c" stroke="none" /><path d="M 86.51685102203217 116.09983520530335 l -11.372847876206814 13.579986168002023 a38.71320674351395,38.71320674351395 0 0,0 -0.5072066517881233,-0.43225251226716094 l 11.604920004571994 -13.38220926551191" fill="#ff930d" stroke="none" /><path d="M 85.97065885151581 115.62618273729859 l -12.600651887297625 14.034877826124655 a39.86144807747016,39.86144807747016 0 0,0 -0.5066208786085888,-0.46278616074385 l 12.840372315373068 -13.815898898794229" fill="#ffa40f" stroke="none" /><path d="M 85.70375840098266 115.38237550388516 l -11.400194187274309 12.266305559491663 a37.74594516849912,37.74594516849912 0 0,0 -0.47211939013399024,-0.4464183515782125 l 11.609649411799117 -12.068252571167518" fill="#ff840c" stroke="none" /><path d="M 85.44109423537348 115.13401014063109 l -12.267097728154392 12.751671342297728 a38.69425920161869,38.69425920161869 0 0,0 -0.47603160512007386,-0.4658971169817475 l 12.484779285650259 -12.53862412239341" fill="#ff930d" stroke="none" /><path d="M 85.18274418774928 114.88116024355367 l -13.573702899753314 13.632244088180835 a40.23755414002812,40.23755414002812 0 0,0 -0.4866049570807467,-0.49292825245189975 l 13.806348481889595 -13.396575341748271" fill="#ffaa0f" stroke="none" /><path d="M 84.9287848128048 114.62390073753433 l -15.179806851287188 14.729269395395054 a42.15130995859374,42.15130995859374 0 0,0 -0.5007845564506688,-0.525070605328253 l 15.431097959116814 -14.4657916734843" fill="#ffc612" stroke="none" /><path d="M 84.67929136418377 114.36230785411682 l -12.654656371061453 11.863032899428442 a38.345658749167406,38.345658749167406 0 0,0 -0.44728127849421706,-0.48543548868009595 l 12.856984057551399 -11.643446155947" fill="#ff8d0d" stroke="none" /><path d="M 84.43433777217949 114.09645910891817 l -12.695409996546307 11.497122658065276 a38.12767539378902,38.12767539378902 0 0,0 -0.43636425544657137,-0.4902598668599383 l 12.891433101641216 -11.276888621464474" fill="#ff8a0c" stroke="none" /><path d="M 83.95833913139862 113.55231037782056 l -13.314921257027336 11.248707163774357 a38.43044867285943,38.43044867285943 0 0,0 -0.42255925354520846,-0.5089998420201547 l 13.506576510466083 -11.017846064640441" fill="#ff8f0d" stroke="none" /><path d="M 83.72743513129214 113.27417163493432 l -13.414181513328405 10.94247582890254 a38.311211480963365,38.311211480963365 0 0,0 -0.41245136587257053,-0.5145964962227042 l 13.600550791255836 -10.709951499101576" fill="#ff8d0d" stroke="none" /><path d="M 83.50135304334701 112.99209946851258 l -13.32280713999037 10.491238221978344 a37.95769057152765,37.95769057152765 0 0,0 -0.39980868516990076,-0.516806620335222 l 13.50142264237834 -10.26035360752987" fill="#ff870c" stroke="none" /><path d="M 83.28015986056508 112.70617746262583 l -13.895682944535846 10.559970190218744 a38.45287869989856,38.45287869989856 0 0,0 -0.3959524658092195,-0.5304430335786419 l 14.075396677040152 -10.319214277130795" fill="#ff8f0d" stroke="none" /><path d="M 82.44556493220864 111.52570212397912 l -35.34859381040484 23.208799439395342 a63.286776370291804,63.286776370291804 0 0,0 -0.5900591917070306,-0.9157849690253984 l 35.74285786548892 -22.596892870448496" fill="#30ff34" stroke="none" /><line stroke="#e1ed5e" stroke-width="0.3" x1="26.63291911575756" x2="22.317208475507996" y1="142.92168965132927" y2="145.44649492493687" /><path d="M 25.769776987707644 143.4266507060508 a86.0,86.0 0 0,1 -11.730757126820373,-40.83630448921669" fill="none" id="id57" stroke="none" /><text fill="#e1ed5e" style="font-size:6.75px; font-family:Arial;" text-anchor="middle"><textPath startOffset="21.46611528233685" xlink:href="#id57">September</textPath></text><path d="M 81.87401531095188 110.60418214915194 l -21.62086308888025 12.648778775306468 a46.049018448129814,46.049018448129814 0 0,0 -0.39437257366850015,-0.6876218239542007 l 21.835387658701126 -12.27473710549396" fill="#fffd17" stroke="none" /><path d="M 81.69416730710424 110.29060199501025 l -18.31636516742414 10.296522812992826 a42.01208259513821,42.01208259513821 0 0,0 -0.3489475377458788,-0.6334411396726892 l 18.490889114621535 -9.979711154922315" fill="#ffc412" stroke="none" /><path d="M 81.51974371655577 109.97397251340807 l -18.50173917041765 9.985567034657942 a42.02441203301092,42.02441203301092 0 0,0 -0.3380913812524338,-0.6395414802659148 l 18.670883059894972 -9.6656105393059" fill="#ffc412" stroke="none" /><path d="M 81.02952815118164 109.00673069616217 l -19.013226942289307 9.027029801838127 a42.04732918453716,42.04732918453716 0 0,0 -0.3047938474275289,-0.6564988316252883 l 19.165795406556665 -8.698410902934011" fill="#ffc412" stroke="none" /><path d="M 80.87730276802145 108.67885076344099 l -19.074228598119223 8.656853236895971 a41.94677313044817,41.94677313044817 0 0,0 -0.292746360429599,-0.6600657599866708 l 19.220416043280103 -8.327239140416605" fill="#ffc312" stroke="none" /><path d="M 80.45479744820244 107.68017299344265 l -38.88661672955809 15.280268537572153 a62.78104315657838,62.78104315657838 0 0,0 -0.3865689530110649,-1.0092095532995864 l 39.143879962162664 -14.608635417439409" fill="#32ff2f" stroke="none" /><path d="M 79.67330655649465 105.27499134158121 l -40.4583623681526 10.49937176352457 a62.79851543944406,62.79851543944406 0 0,0 -0.26252376831667945,-1.0486519567517187 l 40.63309745076433 -9.80139196737546" fill="#31ff2f" stroke="none" /><path d="M 79.18660465613746 102.79330883721812 l -41.48167994639675 5.5671427589104026 a62.85358825325952,62.85358825325952 0 0,0 -0.13468174332460542,-1.0735460088463655 l 41.57136319896821 -4.852278995776628" fill="#31ff2f" stroke="none" /><line stroke="#e1ed5e" stroke-width="0.3" x1="15.007084014347285" x2="10.007500721073583" y1="101.09737516637583" y2="101.16192664675087" /><path d="M 14.007167355692545 101.11028546245083 a86.0,86.0 0 0,1 10.666146001902534,-42.60595125391555" fill="none" id="id58" stroke="none" /><text fill="#e1ed5e" style="font-size:6.75px; font-family:Arial;" text-anchor="middle"><textPath startOffset="22.20632615414155" xlink:href="#id58">October</textPath></text><path d="M 79.00175016825051 100.2711162175752 l -62.994749495248485 0.8133486527256131 a84.0,84.0 0 0,0 -0.006222810841987947,-1.4459620871852985 l 62.99941660337998 0.27112291266336075" fill="#4dd2ff" stroke="none" /><path d="M 79.26566170972629 96.67025291283419 l -41.414809505636406 -6.650843609588822 a62.94544274539679,62.94544274539679 0 0,0 0.1810075291990426,-1.0683166835815134 l 41.29419011491714 7.362746081486163" fill="#30ff2f" stroke="none" /><path d="M 79.54389044137918 95.25157060432595 l -23.79021360650646 -5.5223672563335775 a45.422751760541445,45.422751760541445 0 0,0 0.18335045100901162,-0.7601059898725427 l 23.691630355236633 5.931058477865517" fill="#fff417" stroke="none" /><line stroke="#e1ed5e" stroke-width="0.3" x1="26.266209847984243" x2="21.928928074336255" y1="57.711370442889674" y2="55.22380399835377" /><path d="M 25.398753493254645 57.213857153982495 a86.0,86.0 0 0,1 29.58750427330803,-30.492523968695096" fill="none" id="id59" stroke="none" /><text fill="#e1ed5e" style="font-size:6.75px; font-family:Arial;" text-anchor="middle"><textPath startOffset="21.46611528233685" xlink:href="#id59">November</textPath></text><path d="M 83.17141714833178 87.43820079747576 l -13.479787870248629 -10.062070586169373 a37.821116060117916,37.821116060117916 0 0,0 0.3939232404725785,-0.5183568092986925 l 13.304588689551942 10.292612171349091" fill="#ff850c" stroke="none" /><path d="M 84.5562425177563 85.77008943001954 l -16.386915930023665 -15.09893874402821 a43.28248112068267,43.28248112068267 0 0,0 0.5095639866299789,-0.5435673326153536 l 16.12458462142323 15.378775493521614" fill="#ffd614" stroke="none" /><line stroke="#e1ed5e" stroke-width="0.3" x1="56.762969772571076" x2="54.21961505331055" y1="26.818313649435495" y2="22.513508569990535" /><path d="M 56.25429882871897 25.957352633546506 a86.0,86.0 0 0,1 42.265352541879196,-11.944610805530505" fill="none" id="id60" stroke="none" /><text fill="#e1ed5e" style="font-size:6.75px; font-family:Arial;" text-anchor="middle"><textPath startOffset="22.20632615414155" xlink:href="#id60">December</textPath></text></svg>