<svg xmlns="http://www.w3.org/2000/svg" xmlns:ev="http://www.w3.org/2001/xml-events" xmlns:xlink="http://www.w3.org/1999/xlink" width="200mm" height="200mm" baseProfile="full" version="1.1" viewBox="0 0 200 200"><rect width="200" height="200" x="0" y="0" fill="#1a1a1a"/><text fill="#e1ed5e" alignment-baseline="middle" style="dominant-baseline:central;font-size:9px;font-family:Arial" x="100" y="100" text-anchor="middle">2023</text><line x1="100" x2="100" y1="15" y2="10" stroke="#e1ed5e" stroke-width=".3"/><path id="id49" fill="none" stroke="none" d="M 100.0 14.0 a86.0,86.0 0 0,1 42.46469731375804,11.215312516191453"/><text fill="#e1ed5e" style="font-size:6.75px;font-family:Arial" text-anchor="middle"><textPath startOffset="22.206" xlink:href="#id49">January</textPath></text><line x1="143.237" x2="145.78" y1="26.818" y2="22.514" stroke="#e1ed5e" stroke-width=".3"/><path id="id50" fill="none" stroke="none" d="M 143.74570117128098 25.957352633546492 a86.0,86.0 0 0,1 28.547481713284135,27.462654790039103"/><text fill="#e1ed5e" style="font-size:6.75px;font-family:Arial" text-anchor="middle"><textPath startOffset="19.986" xlink:href="#id50">February</textPath></text><line x1="172.234" x2="176.484" y1="55.198" y2="52.563" stroke="#e1ed5e" stroke-width=".3"/><path id="id51" fill="none" stroke="none" d="M 173.08426987136738 54.67131705675599 a86.0,86.0 0 0,1 12.851231095245387,41.99856678651699"/><text fill="#e1ed5e" style="font-size:6.75px;font-family:Arial" text-anchor="middle"><textPath startOffset="22.206" xlink:href="#id51">March</textPath></text><line x1="184.98" x2="189.979" y1="98.171" y2="98.064" stroke="#e1ed5e" stroke-width=".3"/><path id="id52" fill="none" stroke="none" d="M 185.9800911702706 98.14961562048488 a86.0,86.0 0 0,1 -9.607161424134198,41.387399972396054"/><text fill="#e1ed5e" style="font-size:6.75px;font-family:Arial" text-anchor="middle"><textPath startOffset="21.466" xlink:href="#id52">April</textPath></text><line x1="174.801" x2="179.201" y1="140.371" y2="142.746" stroke="#e1ed5e" stroke-width=".3"/><path id="id53" fill="none" stroke="none" d="M 175.68104954172406 140.8457921977663 a86.0,86.0 0 0,1 -30.038265399797805,32.042727171017184"/><text fill="#e1ed5e" style="font-size:6.75px;font-family:Arial" text-anchor="middle"><textPath startOffset="22.206" xlink:href="#id53">May</textPath></text><path fill="#75ff27" stroke="none" d="M 112.04921762599082 117.19931262002967 l 23.02014602395335 32.85945198389169 a61.120701734214705,61.120701734214705 0 0,0 -0.8668752485025737,0.5962447005106002 l -22.451113890827894 -33.25083747376738"/><line x1="143.865" x2="146.446" y1="172.807" y2="177.09" stroke="#e1ed5e" stroke-width=".3"/><path id="id54" fill="none" stroke="none" d="M 144.38136562736335 173.6633856474863 a86.0,86.0 0 0,1 -40.68145358897372,12.25698825130547"/><text fill="#e1ed5e" style="font-size:6.75px;font-family:Arial" text-anchor="middle"><textPath startOffset="21.466" xlink:href="#id54">June</textPath></text><path fill="#e9ff1a" stroke="none" d="M 101.26447882468166 120.96189622390904 l 1.955189683546077 32.41215467160425 a53.47107231297793,53.47107231297793 0 0,0 -0.9192235761766988,0.04751335914249735 l -1.3969780389558986 -32.44100783750895"/><line x1="102.195" x2="102.324" y1="184.972" y2="189.97" stroke="#e1ed5e" stroke-width=".3"/><path id="id55" fill="none" stroke="none" d="M 102.22038585953345 185.97133177190398 a86.0,86.0 0 0,1 -42.740103519485714,-10.115201625700543"/><text fill="#e1ed5e" style="font-size:6.75px;font-family:Arial" text-anchor="middle"><textPath startOffset="22.206" xlink:href="#id55">July</textPath></text><path fill="red" stroke="none" d="M 100.54218724476979 120.99299961872073 l 0.4366668617786034 16.907345850082404 a37.91298381842998,37.91298381842998 0 0,0 -0.6525371727822663,0.011234019201192033 l -0.1455699991036691 -16.912357346562757"/><path fill="#ffa70f" stroke="none" d="M 99.09653310690486 120.98055641714683 l -1.1126886660495747 25.839161911951418 a46.86310817321839,46.86310817321839 0 0,0 -0.8056257715124374,-0.041641650201718616 l 1.5573025059755012 -25.816180454987496"/><path fill="#ff7b0b" stroke="none" d="M 98.37488393609728 120.93702456842531 l -1.8103723444502116 23.323755820077103 a44.393910181500885,44.393910181500885 0 0,0 -0.7613675718828177,-0.06569399776971416 l 2.211584234074571 -23.28913757002873"/><path fill="#ff800b" stroke="none" d="M 97.65516085044442 120.86867818915974 l -2.647517483154566 23.562464984687043 a44.7107381786863,44.7107381786863 0 0,0 -0.7640694203552277,-0.09251816608829447 l 3.052714326561183 -23.5134012898734"/><path fill="#ffed16" stroke="none" d="M 95.86986931433489 120.58985236759428 l -5.895600854091211 29.391213121977188 a50.97668290875835,50.97668290875835 0 0,0 -0.858856461005969,-0.17998172190876083 l 6.400648776526566 -29.285375419341886"/><path fill="#ffe615" stroke="none" d="M 95.51606077576429 120.51570834832081 l -6.309646716432247 28.86900676878114 a50.55048550366162,50.55048550366162 0 0,0 -0.8484775037356623,-0.19311071744464428 l 6.805644369560772 -28.75611931775881"/><path fill="#ebff1a" stroke="none" d="M 95.16358092515715 120.4354850818985 l -7.446468100494965 31.46381350037216 a53.33297770323498,53.33297770323498 0 0,0 -0.8915412684563919,-0.21911915269528626 l 7.986962653694567 -31.330973089362843"/><path fill="#f5ff19" stroke="none" d="M 94.81253420990036 120.34920634021253 l -7.823367637936083 30.6892283788236 a52.670709175607314,52.670709175607314 0 0,0 -0.8766150590843496,-0.2315220045344654 l 8.350473139831921 -30.55001502498555"/><path fill="#ffe415" stroke="none" d="M 94.11515582081647 120.15858648285463 l -8.252646350885097 28.269514045113247 a50.44947531178836,50.44947531178836 0 0,0 -0.8315155205604254,-0.2505288053190314 l 8.738036845885768 -28.12326987068849"/><path fill="#5bff2a" stroke="none" d="M 93.76903079525671 120.05430185196036 l -12.448644610877473 40.06581776784783 a62.95519641301087,62.95519641301087 0 0,0 -1.0321014447908112,-0.3304462899326305 l 13.136467400759225 -39.8455986312555"/><path fill="#ffcb12" stroke="none" d="M 93.08242187328487 119.8279376855182 l -9.203371292034872 26.37973422669656 a48.93908411187091,48.93908411187091 0 0,0 -0.7930006211412475,-0.2843418091305573 l 9.656091473805846 -26.217404876526047"/><path fill="#d1ff1c" stroke="none" d="M 92.7421414339146 119.70592522655815 l -11.73688656322749 31.867004144764227 a54.95968874063027,54.95968874063027 0 0,0 -0.8849289248072798,-0.33460439900401656 l 12.283685708795051 -31.660251495653576"/><path fill="#ffc011" stroke="none" d="M 92.40401165467489 119.57807347666478 l -9.879691549100077 25.46414216052705 a48.31356514768606,48.31356514768606 0 0,0 -0.7727384892564944,-0.3074885923800631 l 10.316551114398429 -25.290306723740922"/><path fill="#4dd2ff" stroke="none" d="M 91.7346041902142 119.30500536409082 l -24.796187429357385 57.91501609227247 a84.0,84.0 0 0,0 -1.3243173013690268,-0.5805417868221912 l 25.789425405384158 -57.479609752155824"/><path fill="#c4ff1e" stroke="none" d="M 91.40352486487194 119.15986991738527 l -14.231707907739796 31.71970696457509 a55.766094400863274,55.766094400863274 0 0,0 -0.872426036273281,-0.4004880034581315 l 14.775601939780497 -31.47003189078288"/><path fill="#49edff" stroke="none" d="M 90.7491055286396 118.85261126421891 l -26.809040999288044 54.63476314542368 a81.85788382172069,81.85788382172069 0 0,0 -1.2596216801117914,-0.6316004597251863 l 27.745516587082594 -54.16519484478919"/><path fill="#f6ff19" stroke="none" d="M 90.42595943632237 118.69057910512821 l -14.431588019489329 28.173552816792533 a52.654696509125884,52.654696509125884 0 0,0 -0.8031323007894949,-0.42016086139637226 l 14.914411222805319 -27.920962536451444"/><path fill="#fffe18" stroke="none" d="M 90.10565033884886 118.52300852407294 l -14.62332223238578 27.376020823710558 a52.036882402271374,52.036882402271374 0 0,0 -0.7864437817121481,-0.4288318549043236 l 15.09238882596657 -27.12024831704647"/><line x1="58.667" x2="56.235" y1="174.274" y2="178.643" stroke="#e1ed5e" stroke-width=".3"/><path id="id56" fill="none" stroke="none" d="M 58.180547188652646 175.14741091055294 a86.0,86.0 0 0,1 -31.652253787137756,-30.449443065178592"/><text fill="#e1ed5e" style="font-size:6.75px;font-family:Arial" text-anchor="middle"><textPath startOffset="22.206" xlink:href="#id56">August</textPath></text><path fill="#ffd814" stroke="none" d="M 89.7882731507175 118.34994917583269 l -13.972156398066934 25.107248124182686 a49.73317007887083,49.73317007887083 0 0,0 -0.7444611113909698,-0.42272444828931044 l 14.402266276379112 -24.863020510098742"/><path fill="#b8ff1f" stroke="none" d="M 89.4739219176387 118.17145234162733 l -17.837865570042826 30.79398818307785 a56.58734545192234,56.58734545192234 0 0,0 -0.8386571427549614,-0.4954934224669657 l 18.36529058382617 -30.482376188317133"/><path fill="#d2ff1c" stroke="none" d="M 89.1626897886671 117.98757091392108 l -17.476805830395335 29.007685310541735 a54.86568394568105,54.86568394568105 0 0,0 -0.8047510412004648,-0.4943438179939024 l 17.97353607152811 -28.702553025719453"/><path fill="#e9ff1a" stroke="none" d="M 88.8546689885994 117.79835938074946 l -17.23199401679485 27.51835921643901 a53.46847258125684,53.46847258125684 0 0,0 -0.7758484101078127,-0.49518316332783335 l 17.703124228949584 -27.21766162428737"/><path fill="#f8ff18" stroke="none" d="M 87.36589467227662 116.77436683061367 l -18.96574505222669 25.180917561597873 a52.524246138965,52.524246138965 0 0,0 -0.717509394038379,-0.5501556071784823 l 19.396383174758558 -24.850722612592026"/><line x1="26.633" x2="22.317" y1="142.922" y2="145.446" stroke="#e1ed5e" stroke-width=".3"/><path id="id57" fill="none" stroke="none" d="M 25.769776987707644 143.4266507060508 a86.0,86.0 0 0,1 -11.730757126820373,-40.83630448921669"/><text fill="#e1ed5e" style="font-size:6.75px;font-family:Arial" text-anchor="middle"><textPath startOffset="21.466" xlink:href="#id57">September</textPath></text><path fill="#38ff7e" stroke="none" d="M 81.87401531095188 110.60418214915194 l -43.3610332983635 25.36735538285592 a71.2362610852151,71.2362610852151 0 0,0 -0.6100809217973425,-1.063727511027602 l 43.79126621631322 -24.61720802597001"/><line x1="15.007" x2="10.008" y1="101.097" y2="101.162" stroke="#e1ed5e" stroke-width=".3"/><path id="id58" fill="none" stroke="none" d="M 14.007167355692545 101.11028546245083 a86.0,86.0 0 0,1 10.666146001902534,-42.60595125391555"/><text fill="#e1ed5e" style="font-size:6.75px;font-family:Arial" text-anchor="middle"><textPath startOffset="22.206" xlink:href="#id58">October</textPath></text><line x1="26.266" x2="21.929" y1="57.711" y2="55.224" stroke="#e1ed5e" stroke-width=".3"/><path id="id59" fill="none" stroke="none" d="M 25.39875349325466 57.213857153982495 a86.0,86.0 0 0,1 29.58750427330802,-30.492523968695096"/><text fill="#e1ed5e" style="font-size:6.75px;font-family:Arial" text-anchor="middle"><textPath startOffset="21.466" xlink:href="#id59">November</textPath></text><line x1="56.763" x2="54.22" y1="26.818" y2="22.514" stroke="#e1ed5e" stroke-width=".3"/><path id="id60" fill="none" stroke="none" d="M 56.25429882871897 25.957352633546506 a86.0,86.0 0 0,1 42.265352541879196,-11.944610805530505"/><text fill="#e1ed5e" style="font-size:6.75px;font-family:Arial" text-anchor="middle"><textPath startOffset="22.206" xlink:href="#id60">December</textPath></text></svg>