<?xml version="1.0" encoding="utf-8" ?>
<svg baseProfile="full" height="200mm" version="1.1" viewBox="0,0,200,200" width="200mm" xmlns="http://www.w3.org/2000/svg" xmlns:ev="http://www.w3.org/2001/xml-events" xmlns:xlink="http://www.w3.org/1999/xlink"><defs /><rect fill="#1a1a1a" height="200" width="200" x="0" y="0" /><text alignment-baseline="middle" fill="#e1ed5e" style="dominant-baseline: central; font-size:9.0px; font-family:Arial;" text-anchor="middle" x="100.0" y="100.0">2024</text><line stroke="#e1ed5e" stroke-width="0.3" x1="100.0" x2="100.0" y1="15.0" y2="10.0" /><path d="M 100.0 14.0 a86.0,86.0 0 0,1 42.35913384403234,11.155469271406648" fill="none" id="id61" stroke="none" /><text fill="#e1ed5e" style="font-size:6.75px; font-family:Arial;" text-anchor="middle"><textPath startOffset="22.145653131862478" xlink:href="#id61">January</textPath></text><line stroke="#e1ed5e" stroke-width="0.3" x1="143.13028292997686" x2="145.6673583964461" y1="26.7553504044142" y2="22.446841604673864" /><path d="M 143.63769802327073 25.89364864446614 a86.0,86.0 0 0,1 29.32050498858742,28.57503671076993" fill="none" id="id62" stroke="none" /><text fill="#e1ed5e" style="font-size:6.75px; font-family:Arial;" text-anchor="middle"><textPath startOffset="20.669276256404974" xlink:href="#id62">February</textPath></text><path d="M 112.16784306229584 82.88440491214696 l 14.614651760146602 -20.557337943628244 a46.222850540707995,46.222850540707995 0 0,0 0.642759529168221,0.4653083309163489 l -14.96539229968879 20.30342884133882" fill="#f0ff19" stroke="none" /><path d="M 115.16444852881244 85.47280134310134 l 18.152940489697595 -17.390106353003528 a46.1385172074901,46.1385172074901 0 0,0 0.5429935889471602,0.5766403746001741 l -18.448789912381017 17.07592451845886" fill="#f1ff19" stroke="none" /><line stroke="#e1ed5e" stroke-width="0.3" x1="172.87174338648825" x2="177.1583165268699" y1="56.24261187166439" y2="53.66864786411523" /><path d="M 173.72905801456457 55.72781907015455 a86.0,86.0 0 0,1 12.242430191666344,42.057860355516425" fill="none" id="id63" stroke="none" /><text fill="#e1ed5e" style="font-size:6.75px; font-family:Arial;" text-anchor="middle"><textPath startOffset="22.145653131862474" xlink:href="#id63">March</textPath></text><path d="M 119.58574465831526 92.42381321644754 l 17.61130459545445 -6.8124309514344334 a39.88298877354792,39.88298877354792 0 0,0 0.24151868617944908,0.6406570092370486 l -17.725653965448338 6.509105662003227" fill="#ffb711" stroke="none" /><path d="M 120.16314734710363 94.1308016681162 l 27.17690159813376 -7.910799974808961 a49.30485358937726,49.30485358937726 0 0,0 0.2295763300957745,0.8146854051731424 l -27.308696420304116 7.443106645732805" fill="#c8ff1d" stroke="none" /><path d="M 120.77682067341334 96.94652285012252 l 6.741871939638834 -0.9908230060160287 a27.81429141435411,27.81429141435411 0 0,0 0.06537084759188802,0.4729908887236109 l -6.757887303785934 0.8749438090923322" fill="#ff0000" stroke="none" /><path d="M 120.86939407059847 97.66154086499901 l 28.33581959117878 -3.175087688055318 a49.51315229382173,49.51315229382173 0 0,0 0.08739686172489902,0.8454853571467131 l -28.386148845385346 2.6881978086256737" fill="#c5ff1e" stroke="none" /><path d="M 120.93736805541906 98.37931529534042 l 31.315127375885332 -2.423988909600699 a52.40880330101403,52.40880330101403 0 0,0 0.061732675892680756,0.8975795590196065 l -31.352124012943076 1.8860659264267583" fill="#a1ff22" stroke="none" /><path d="M 120.98066250479742 99.09900007780936 l 31.51790784829025 -1.3535145762164544 a52.54695733095898,52.54695733095898 0 0,0 0.030965954492089665,0.9015399782171911 l -31.536498489779188 0.8122683334351433" fill="#a0ff22" stroke="none" /><line stroke="#e1ed5e" stroke-width="0.3" x1="184.99686870605535" x2="189.99668451229388" y1="99.2704041080226" y2="99.22748670261217" /><path d="M 185.99683186730306 99.26182062694052 a86.0,86.0 0 0,1 -10.086455211305974,41.156179273409016" fill="none" id="id64" stroke="none" /><text fill="#e1ed5e" style="font-size:6.75px; font-family:Arial;" text-anchor="middle"><textPath startOffset="21.40746469413373" xlink:href="#id64">April</textPath></text><path d="M 120.99303781780057 100.54070618675476 l 31.578899736981693 0.8133604391554904 a52.58937264021439,52.58937264021439 0 0,0 -0.03099094986010318,0.9022676910844191 l -31.560284100124747 -1.3553343948040202" fill="#9fff22" stroke="none" /><path d="M 120.98066250479742 100.90099992219065 l 31.66975574437342 1.360035578235553 a52.69894518248738,52.69894518248738 0 0,0 -0.0465718409477225,0.9034812726185196 l -31.641742313969125 -1.9034886442308032" fill="#9eff22" stroke="none" /><path d="M 120.9064616781168 101.97986365728391 l 62.39278986269156 5.908662069535925 a83.6719435976096,83.6719435976096 0 0,0 -0.1476913697891603,1.4287800279000207 l -62.28216610042073 -6.978846619718877" fill="#4dd5ff" stroke="none" /><path d="M 120.82617615685814 102.69636545807757 l 31.227885491572742 4.043074980932137 a52.48852628460435,52.48852628460435 0 0,0 -0.12336174238481923,0.892584115313303 l -31.153879232632715 -4.578547404445525" fill="#a0ff22" stroke="none" /><path d="M 120.7213421655516 103.40968896794604 l 7.800567787508838 1.2835804609703994 a28.905468778466304,28.905468778466304 0 0,0 -0.08476897953306524,0.488924947467031 l -7.777383990483538 -1.4172984413580185" fill="#ff1201" stroke="none" /><path d="M 120.51834098615036 104.47187691870673 l 61.38364292864233 13.37827927628336 a83.82459689950501,83.82459689950501 0 0,0 -0.31849011270893374,1.4033262019651378 l -61.14494195437573 -14.430039812187514" fill="#4dd4ff" stroke="none" /><path d="M 120.16314734710363 105.8691983318838 l 30.29017006293007 8.817027051650397 a52.54733536244797,52.54733536244797 0 0,0 -0.2595429998950718,0.8639342348647955 l -30.13435074303137 -9.335698890105915" fill="#a0ff22" stroke="none" /><path d="M 119.94978838288452 106.5578916946017 l 30.22227145577871 9.934660918102038 a52.81325477697057,52.81325477697057 0 0,0 -0.29050956480728746,0.8588399081859521 l -30.04727646939906 -10.452002500762152" fill="#9cff22" stroke="none" /><path d="M 119.58574465831526 107.57618678355244 l 29.47774889503606 11.402626526770025 a52.60629006428624,52.60629006428624 0 0,0 -0.33302618601250555,0.8394435375576432 l -29.27766403405743 -11.906971081541231" fill="#9fff22" stroke="none" /><path d="M 119.31412917781788 108.2440532568976 l 35.98845438879789 15.361331172798986 a60.12977567907836,60.12977567907836 0 0,0 -0.41336677571329594,0.945864078222357 l -35.71945373106763 -15.976857320797187" fill="#47ff2c" stroke="none" /><path d="M 119.0197475246899 108.90220220490707 l 28.502932436966987 13.340811577929808 a52.47053242422395,52.47053242422395 0 0,0 -0.38883348529029665,0.812512435921202 l -28.269719693716777 -13.828136515916114" fill="#a0ff22" stroke="none" /><line stroke="#e1ed5e" stroke-width="0.3" x1="174.33088141563837" x2="178.70328620479359" y1="141.23008692659167" y2="143.65538615756765" /><path d="M 175.20536237346943 141.71514677278685 a86.0,86.0 0 0,1 -30.301960400862466,31.631185727798858" fill="none" id="id65" stroke="none" /><text fill="#e1ed5e" style="font-size:6.75px; font-family:Arial;" text-anchor="middle"><textPath startOffset="22.145653131862474" xlink:href="#id65">May</textPath></text><path d="M 118.36410011445183 110.18625677009912 l 55.092300343355504 30.558770310297355 a84.0,84.0 0 0,0 -0.7102665399144867,1.254972919603509 l -54.559600438419636 -31.499999999999986" fill="#4dd2ff" stroke="none" /><path d="M 118.00360718960297 110.81064883170644 l 33.95609295737337 20.389658183107638 a60.607504462585744,60.607504462585744 0 0,0 -0.5432511397271743,0.8873599098362092 l -33.60107385319079 -20.969555209068407" fill="#42ff2d" stroke="none" /><path d="M 116.1254893667686 113.45245675266167 l 24.346864167003783 20.311020014345132 a52.706581789742984,52.706581789742984 0 0,0 -0.585558670023998,0.6897866409219365 l -23.99461093347267 -20.725973437716625" fill="#9eff22" stroke="none" /><path d="M 115.6541949942343 113.99807769240083 l 23.914618951596136 21.38459973137559 a53.081304606751736,53.081304606751736 0 0,0 -0.6132212638052612,0.6740375894761022 l -23.543999986948997 -21.791974896409364" fill="#99ff23" stroke="none" /><path d="M 115.41159269507618 114.26474011684316 l 23.051774254803664 21.33637810723914 a52.41059259277836,52.41059259277836 0 0,0 -0.6168082004633694,0.6550289340640171 l -22.682110220604034 -21.728948501247654" fill="#a1ff22" stroke="none" /><path d="M 114.91283532996324 114.78537596483092 l 22.288829085730082 22.098327417740624 a52.3867484246864,52.3867484246864 0 0,0 -0.6386395654685026,0.6331811404432177 l -21.906197600131616 -22.477688568412503" fill="#a1ff22" stroke="none" /><path d="M 114.39649973595853 115.28858382429668 l 13.086485905746521 13.897394533738845 a40.089098674052075,40.089098674052075 0 0,0 -0.5050658097148043,0.4674813732773002 l -12.84599032471775 -14.119993653148525" fill="#ffba11" stroke="none" /><path d="M 113.59037401385872 116.0094264158162 l 20.217321427820437 23.815953806240834 a52.24003427361764,52.24003427361764 0 0,0 -0.688637251009506,0.5744856870246813 l -19.805509842649034 -24.159501677177385" fill="#a3ff21" stroke="none" /><path d="M 112.7482090630111 116.68781488649013 l 19.197210728305926 25.129765082095638 a52.623377315339,52.623377315339 0 0,0 -0.7225615982047134,0.542223693911706 l -18.762996141190445 -25.45560780327136" fill="#9fff22" stroke="none" /><path d="M 111.5731344415666 117.5232005979908 l 17.26044977325277 26.134520886746962 a52.31990275136235,52.31990275136235 0 0,0 -0.7536915381525296,0.4885337491876416 l -16.80927260284323 -26.4269684776385" fill="#a2ff22" stroke="none" /><line stroke="#e1ed5e" stroke-width="0.3" x1="143.1302829299769" x2="145.66735839644613" y1="173.24464959558577" y2="177.55315839532614" /><path d="M 143.63769802327073 174.10635135553383 a86.0,86.0 0 0,1 -40.68552437913181,11.842963189579606" fill="none" id="id66" stroke="none" /><text fill="#e1ed5e" style="font-size:6.75px; font-family:Arial;" text-anchor="middle"><textPath startOffset="21.407464694133747" xlink:href="#id66">June</textPath></text><path d="M 110.65571695917076 118.09573695890943 l 15.911051209419856 27.02044344164016 a52.35707120206949,52.35707120206949 0 0,0 -0.7783939042883578,0.44940593017644886 l -15.444864837271101 -27.28959626909278" fill="#a2ff22" stroke="none" /><path d="M 110.02825361518725 118.45085714620011 l 18.203283039152232 33.49199051354204 a59.11919387870994,59.11919387870994 0 0,0 -0.8958280330423151,0.47697796988041036 l -17.625666190323365 -33.799538951145024" fill="#53ff2b" stroke="none" /><path d="M 109.06512990194946 118.94263497670748 l 13.659597181174739 28.543304522995477 a52.64340102208375,52.64340102208375 0 0,0 -0.8185078368523157,0.38310299653040303 l -13.167600630450918 -28.773583751096414" fill="#9eff22" stroke="none" /><line stroke="#e1ed5e" stroke-width="0.3" x1="101.45913802915013" x2="101.54496967792366" y1="184.9874750549273" y2="189.98673829345242" /><path d="M 101.47630435890484 185.9873277026323 a86.0,86.0 0 0,1 -42.54439059252881,-10.42667462771756" fill="none" id="id67" stroke="none" /><text fill="#e1ed5e" style="font-size:6.75px; font-family:Arial;" text-anchor="middle"><textPath startOffset="22.145653131862474" xlink:href="#id67">July</textPath></text><line stroke="#e1ed5e" stroke-width="0.3" x1="58.13341422392154" x2="55.67067388415222" y1="173.97424548756322" y2="178.32567169271397" /><path d="M 57.64086615596768 174.84453072859336 a86.0,86.0 0 0,1 -31.369924170532247,-30.572349798747897" fill="none" id="id68" stroke="none" /><text fill="#e1ed5e" style="font-size:6.75px; font-family:Arial;" text-anchor="middle"><textPath startOffset="22.145653131862474" xlink:href="#id68">August</textPath></text><line stroke="#e1ed5e" stroke-width="0.3" x1="26.387840678322732" x2="22.057713659400548" y1="142.50000000000003" y2="145.00000000000006" /><path d="M 25.521815274538298 143.00000000000003 a86.0,86.0 0 0,1 -11.493303480769221,-40.785679425670985" fill="none" id="id69" stroke="none" /><text fill="#e1ed5e" style="font-size:6.75px; font-family:Arial;" text-anchor="middle"><textPath startOffset="21.40746469413373" xlink:href="#id69">September</textPath></text><line stroke="#e1ed5e" stroke-width="0.3" x1="15.003131293944662" x2="10.003315487706104" y1="100.72959589197737" y2="100.7725132973878" /><path d="M 14.003168132696942 100.73817937305945 a86.0,86.0 0 0,1 10.791469493833604,-42.45332614584628" fill="none" id="id70" stroke="none" /><text fill="#e1ed5e" style="font-size:6.75px; font-family:Arial;" text-anchor="middle"><textPath startOffset="22.145653131862435" xlink:href="#id70">October</textPath></text><line stroke="#e1ed5e" stroke-width="0.3" x1="26.387840678322718" x2="22.05771365940052" y1="57.49999999999999" y2="54.99999999999999" /><path d="M 25.521815274538284 56.99999999999999 a86.0,86.0 0 0,1 29.574782752854787,-30.34633250058573" fill="none" id="id71" stroke="none" /><text fill="#e1ed5e" style="font-size:6.75px; font-family:Arial;" text-anchor="middle"><textPath startOffset="21.40746469413373" xlink:href="#id71">November</textPath></text><line stroke="#e1ed5e" stroke-width="0.3" x1="56.869717070023135" x2="54.33264160355391" y1="26.7553504044142" y2="22.446841604673864" /><path d="M 56.362301976729285 25.89364864446614 a86.0,86.0 0 0,1 42.16139366436587,-11.88097634709845" fill="none" id="id72" stroke="none" /><text fill="#e1ed5e" style="font-size:6.75px; font-family:Arial;" text-anchor="middle"><textPath startOffset="22.145653131862474" xlink:href="#id72">December</textPath></text></svg>