<?xml version="1.0" encoding="utf-8" ?>
<svg baseProfile="full" height="200mm" version="1.1" viewBox="0,0,200,200" width="200mm" xmlns="http://www.w3.org/2000/svg" xmlns:ev="http://www.w3.org/2001/xml-events" xmlns:xlink="http://www.w3.org/1999/xlink"><defs /><rect fill="#1a1a1a" height="200" width="200" x="0" y="0" /><text alignment-baseline="middle" fill="#e1ed5e" style="dominant-baseline: central; font-size:9.0px; font-family:Arial;" text-anchor="middle" x="100.0" y="100.0">2024</text><line stroke="#e1ed5e" stroke-width="0.3" x1="100.0" x2="100.0" y1="15.0" y2="10.0" /><path d="M 100.0 14.0 a86.0,86.0 0 0,1 42.35913384403234,11.155469271406648" fill="none" id="id61" stroke="none" /><text fill="#e1ed5e" style="font-size:6.75px; font-family:Arial;" text-anchor="middle"><textPath startOffset="22.145653131862478" xlink:href="#id61">January</textPath></text><line stroke="#e1ed5e" stroke-width="0.3" x1="143.13028292997686" x2="145.6673583964461" y1="26.7553504044142" y2="22.446841604673864" /><path d="M 143.63769802327073 25.89364864446614 a86.0,86.0 0 0,1 29.32050498858742,28.57503671076993" fill="none" id="id62" stroke="none" /><text fill="#e1ed5e" style="font-size:6.75px; font-family:Arial;" text-anchor="middle"><textPath startOffset="20.669276256404974" xlink:href="#id62">February</textPath></text><path d="M 112.16784306229584 82.88440491214696 l 14.691152181282497 -20.66494536636609 a46.35487959759416,46.35487959759416 0 0,0 0.6445954811583723,0.46663741857263824 l -15.043728672814838 20.409707176420376" fill="#eeff19" stroke="none" /><path d="M 115.16444852881244 85.47280134310134 l 18.247962089603497 -17.481134896237833 a46.27010482139064,46.27010482139064 0 0,0 0.5445422132865927,0.5782849599827323 l -18.54536013662635 17.165308476310603" fill="#f0ff19" stroke="none" /><line stroke="#e1ed5e" stroke-width="0.3" x1="172.87174338648825" x2="177.1583165268699" y1="56.24261187166439" y2="53.66864786411523" /><path d="M 173.72905801456457 55.72781907015455 a86.0,86.0 0 0,1 12.242430191666344,42.057860355516425" fill="none" id="id63" stroke="none" /><text fill="#e1ed5e" style="font-size:6.75px; font-family:Arial;" text-anchor="middle"><textPath startOffset="22.145653131862474" xlink:href="#id63">March</textPath></text><path d="M 119.58574465831526 92.42381321644754 l 17.70349100128991 -6.848090633601141 a39.98183181251927,39.98183181251927 0 0,0 0.24211724816400568,0.6422447660145266 l -17.818438933268357 6.543177587392457" fill="#ffb811" stroke="none" /><path d="M 120.16314734710363 94.1308016681162 l 27.31915913882286 -7.952209071619945 a49.45301539680958,49.45301539680958 0 0,0 0.23026621033137867,0.817133546752153 l -27.451643841228822 7.48206760096478" fill="#c6ff1e" stroke="none" /><path d="M 120.77682067341334 96.94652285012252 l 6.777162280530369 -0.9960094708374525 a27.849960835117344,27.849960835117344 0 0,0 0.06545468004455302,0.47359745859000524 l -6.793261477130135 0.8795237040473617" fill="#ff0000" stroke="none" /><path d="M 120.86939407059847 97.66154086499901 l 28.484143490203667 -3.1917076903151043 a49.662404441200124,49.662404441200124 0 0,0 0.08766031029729382,0.8480339831033537 l -28.534736192982628 2.702269184928819" fill="#c4ff1e" stroke="none" /><path d="M 120.93736805541906 98.37931529534042 l 31.479046466910972 -2.436677283942869 a52.5732127388396,52.5732127388396 0 0,0 0.06192633485643709,0.9003953178503233 l -31.516236762932476 1.8959385419382118" fill="#9fff22" stroke="none" /><path d="M 120.98066250479742 99.09900007780936 l 31.68288839406635 -1.3605995507196782 a52.71208993630478,52.71208993630478 0 0,0 0.031063267238669676,0.904373132656348 l -31.701576348301867 0.8165201534992101" fill="#9eff22" stroke="none" /><line stroke="#e1ed5e" stroke-width="0.3" x1="184.99686870605535" x2="189.99668451229388" y1="99.2704041080226" y2="99.22748670261217" /><path d="M 185.99683186730306 99.26182062694052 a86.0,86.0 0 0,1 -10.086455211305974,41.156179273409016" fill="none" id="id64" stroke="none" /><text fill="#e1ed5e" style="font-size:6.75px; font-family:Arial;" text-anchor="middle"><textPath startOffset="21.40746469413373" xlink:href="#id64">April</textPath></text><path d="M 120.99303781780057 100.54070618675476 l 31.744199544909733 0.8176179758489306 a52.75472726857339,52.75472726857339 0 0,0 -0.031088393444982362,0.9051046547378988 l -31.725486464467902 -1.36242889515094" fill="#9dff22" stroke="none" /><path d="M 120.98066250479742 100.90099992219065 l 31.835531138236874 1.3671546869356688 a52.864873368517564,52.864873368517564 0 0,0 -0.04671847729996414,0.906325978677791 l -31.80737107148034 -1.9134524589901905" fill="#9cff22" stroke="none" /><path d="M 120.9064616781168 101.97986365728391 l 62.7193850343504 5.939590971851738 a84.0,84.0 0 0,0 -0.14827043007333573,1.4343819108682743 l -62.6081822117954 -7.015377405002943" fill="#4dd2ff" stroke="none" /><path d="M 120.82617615685814 102.69636545807757 l 31.391347914796764 4.064238464250209 a52.65335303253205,52.65335303253205 0 0,0 -0.12374912828141944,0.8953870466850335 l -31.316954269960135 -4.6025138191353285" fill="#9eff22" stroke="none" /><path d="M 120.7213421655516 103.40968896794604 l 7.841399873735543 1.2902993652205725 a28.94684996912037,28.94684996912037 0 0,0 -0.08489033516062805,0.4896248944778103 l -7.81809472108268 -1.4247172926189708" fill="#ff1202" stroke="none" /><line stroke="#e1ed5e" stroke-width="0.3" x1="174.33088141563837" x2="178.70328620479359" y1="141.23008692659167" y2="143.65538615756765" /><path d="M 175.20536237346943 141.71514677278685 a86.0,86.0 0 0,1 -30.301960400862466,31.631185727798858" fill="none" id="id65" stroke="none" /><text fill="#e1ed5e" style="font-size:6.75px; font-family:Arial;" text-anchor="middle"><textPath startOffset="22.145653131862474" xlink:href="#id65">May</textPath></text><line stroke="#e1ed5e" stroke-width="0.3" x1="143.1302829299769" x2="145.66735839644613" y1="173.24464959558577" y2="177.55315839532614" /><path d="M 143.63769802327073 174.10635135553383 a86.0,86.0 0 0,1 -40.68552437913181,11.842963189579606" fill="none" id="id66" stroke="none" /><text fill="#e1ed5e" style="font-size:6.75px; font-family:Arial;" text-anchor="middle"><textPath startOffset="21.407464694133747" xlink:href="#id66">June</textPath></text><line stroke="#e1ed5e" stroke-width="0.3" x1="101.45913802915013" x2="101.54496967792366" y1="184.9874750549273" y2="189.98673829345242" /><path d="M 101.47630435890484 185.9873277026323 a86.0,86.0 0 0,1 -42.54439059252881,-10.42667462771756" fill="none" id="id67" stroke="none" /><text fill="#e1ed5e" style="font-size:6.75px; font-family:Arial;" text-anchor="middle"><textPath startOffset="22.145653131862474" xlink:href="#id67">July</textPath></text><line stroke="#e1ed5e" stroke-width="0.3" x1="58.13341422392154" x2="55.67067388415222" y1="173.97424548756322" y2="178.32567169271397" /><path d="M 57.64086615596768 174.84453072859336 a86.0,86.0 0 0,1 -31.369924170532247,-30.572349798747897" fill="none" id="id68" stroke="none" /><text fill="#e1ed5e" style="font-size:6.75px; font-family:Arial;" text-anchor="middle"><textPath startOffset="22.145653131862474" xlink:href="#id68">August</textPath></text><line stroke="#e1ed5e" stroke-width="0.3" x1="26.387840678322732" x2="22.057713659400548" y1="142.50000000000003" y2="145.00000000000006" /><path d="M 25.521815274538298 143.00000000000003 a86.0,86.0 0 0,1 -11.493303480769221,-40.785679425670985" fill="none" id="id69" stroke="none" /><text fill="#e1ed5e" style="font-size:6.75px; font-family:Arial;" text-anchor="middle"><textPath startOffset="21.40746469413373" xlink:href="#id69">September</textPath></text><line stroke="#e1ed5e" stroke-width="0.3" x1="15.003131293944662" x2="10.003315487706104" y1="100.72959589197737" y2="100.7725132973878" /><path d="M 14.003168132696942 100.73817937305945 a86.0,86.0 0 0,1 10.791469493833604,-42.45332614584628" fill="none" id="id70" stroke="none" /><text fill="#e1ed5e" style="font-size:6.75px; font-family:Arial;" text-anchor="middle"><textPath startOffset="22.145653131862435" xlink:href="#id70">October</textPath></text><line stroke="#e1ed5e" stroke-width="0.3" x1="26.387840678322718" x2="22.05771365940052" y1="57.49999999999999" y2="54.99999999999999" /><path d="M 25.521815274538284 56.99999999999999 a86.0,86.0 0 0,1 29.574782752854787,-30.34633250058573" fill="none" id="id71" stroke="none" /><text fill="#e1ed5e" style="font-size:6.75px; font-family:Arial;" text-anchor="middle"><textPath startOffset="21.40746469413373" xlink:href="#id71">November</textPath></text><line stroke="#e1ed5e" stroke-width="0.3" x1="56.869717070023135" x2="54.33264160355391" y1="26.7553504044142" y2="22.446841604673864" /><path d="M 56.362301976729285 25.89364864446614 a86.0,86.0 0 0,1 42.16139366436587,-11.88097634709845" fill="none" id="id72" stroke="none" /><text fill="#e1ed5e" style="font-size:6.75px; font-family:Arial;" text-anchor="middle"><textPath startOffset="22.145653131862474" xlink:href="#id72">December</textPath></text></svg>