<?xml version="1.0" encoding="utf-8" ?>
<svg baseProfile="full" height="200mm" version="1.1" viewBox="0,0,200,200" width="200mm" xmlns="http://www.w3.org/2000/svg" xmlns:ev="http://www.w3.org/2001/xml-events" xmlns:xlink="http://www.w3.org/1999/xlink"><defs /><rect fill="#1a1a1a" height="200" width="200" x="0" y="0" /><text alignment-baseline="middle" fill="#e1ed5e" style="dominant-baseline: central; font-size:9.0px; font-family:Arial;" text-anchor="middle" x="100.0" y="100.0">2024</text><line stroke="#e1ed5e" stroke-width="0.3" x1="100.0" x2="100.0" y1="15.0" y2="10.0" /><path d="M 100.0 14.0 a86.0,86.0 0 0,1 42.35913384403234,11.155469271406648" fill="none" id="id61" stroke="none" /><text fill="#e1ed5e" style="font-size:6.75px; font-family:Arial;" text-anchor="middle"><textPath startOffset="22.145653131862478" xlink:href="#id61">January</textPath></text><line stroke="#e1ed5e" stroke-width="0.3" x1="143.13028292997686" x2="145.6673583964461" y1="26.7553504044142" y2="22.446841604673864" /><path d="M 143.63769802327073 25.89364864446614 a86.0,86.0 0 0,1 29.32050498858742,28.57503671076993" fill="none" id="id62" stroke="none" /><text fill="#e1ed5e" style="font-size:6.75px; font-family:Arial;" text-anchor="middle"><textPath startOffset="20.669276256404974" xlink:href="#id62">February</textPath></text><path d="M 112.16784306229584 82.88440491214696 l 14.614651760146602 -20.557337943628244 a46.222850540707995,46.222850540707995 0 0,0 0.642759529168221,0.4653083309163489 l -14.96539229968879 20.30342884133882" fill="#ebff1a" stroke="none" /><path d="M 115.16444852881244 85.47280134310134 l 18.152940489697595 -17.390106353003528 a46.1385172074901,46.1385172074901 0 0,0 0.5429935889471602,0.5766403746001741 l -18.448789912381017 17.07592451845886" fill="#ecff1a" stroke="none" /><line stroke="#e1ed5e" stroke-width="0.3" x1="172.87174338648825" x2="177.1583165268699" y1="56.24261187166439" y2="53.66864786411523" /><path d="M 173.72905801456457 55.72781907015455 a86.0,86.0 0 0,1 12.242430191666344,42.057860355516425" fill="none" id="id63" stroke="none" /><text fill="#e1ed5e" style="font-size:6.75px; font-family:Arial;" text-anchor="middle"><textPath startOffset="22.145653131862474" xlink:href="#id63">March</textPath></text><path d="M 119.58574465831526 92.42381321644754 l 17.61130459545445 -6.8124309514344334 a39.88298877354792,39.88298877354792 0 0,0 0.24151868617944908,0.6406570092370486 l -17.725653965448338 6.509105662003227" fill="#ffbd11" stroke="none" /><path d="M 120.16314734710363 94.1308016681162 l 27.17690159813376 -7.910799974808961 a49.30485358937726,49.30485358937726 0 0,0 0.2295763300957745,0.8146854051731424 l -27.308696420304116 7.443106645732805" fill="#c4ff1e" stroke="none" /><path d="M 120.77682067341334 96.94652285012252 l 6.741871939638834 -0.9908230060160287 a27.81429141435411,27.81429141435411 0 0,0 0.06537084759188802,0.4729908887236109 l -6.757887303785934 0.8749438090923322" fill="#ff0801" stroke="none" /><path d="M 120.86939407059847 97.66154086499901 l 28.33581959117878 -3.175087688055318 a49.51315229382173,49.51315229382173 0 0,0 0.08739686172489902,0.8454853571467131 l -28.386148845385346 2.6881978086256737" fill="#c1ff1e" stroke="none" /><path d="M 120.93736805541906 98.37931529534042 l 31.315127375885332 -2.423988909600699 a52.40880330101403,52.40880330101403 0 0,0 0.061732675892680756,0.8975795590196065 l -31.352124012943076 1.8860659264267583" fill="#9eff22" stroke="none" /><path d="M 120.98066250479742 99.09900007780936 l 31.51790784829025 -1.3535145762164544 a52.54695733095898,52.54695733095898 0 0,0 0.030965954492089665,0.9015399782171911 l -31.536498489779188 0.8122683334351433" fill="#9cff22" stroke="none" /><line stroke="#e1ed5e" stroke-width="0.3" x1="184.99686870605535" x2="189.99668451229388" y1="99.2704041080226" y2="99.22748670261217" /><path d="M 185.99683186730306 99.26182062694052 a86.0,86.0 0 0,1 -10.086455211305974,41.156179273409016" fill="none" id="id64" stroke="none" /><text fill="#e1ed5e" style="font-size:6.75px; font-family:Arial;" text-anchor="middle"><textPath startOffset="21.40746469413373" xlink:href="#id64">April</textPath></text><path d="M 120.99303781780057 100.54070618675476 l 31.578899736981693 0.8133604391554904 a52.58937264021439,52.58937264021439 0 0,0 -0.03099094986010318,0.9022676910844191 l -31.560284100124747 -1.3553343948040202" fill="#9bff22" stroke="none" /><path d="M 120.98066250479742 100.90099992219065 l 31.66975574437342 1.360035578235553 a52.69894518248738,52.69894518248738 0 0,0 -0.0465718409477225,0.9034812726185196 l -31.641742313969125 -1.9034886442308032" fill="#9aff22" stroke="none" /><path d="M 120.9064616781168 101.97986365728391 l 62.39278986269156 5.908662069535925 a83.6719435976096,83.6719435976096 0 0,0 -0.1476913697891603,1.4287800279000207 l -62.28216610042073 -6.978846619718877" fill="#4dd5ff" stroke="none" /><path d="M 120.82617615685814 102.69636545807757 l 31.227885491572742 4.043074980932137 a52.48852628460435,52.48852628460435 0 0,0 -0.12336174238481923,0.892584115313303 l -31.153879232632715 -4.578547404445525" fill="#9dff22" stroke="none" /><path d="M 120.7213421655516 103.40968896794604 l 7.800567787508838 1.2835804609703994 a28.905468778466304,28.905468778466304 0 0,0 -0.08476897953306524,0.488924947467031 l -7.777383990483538 -1.4172984413580185" fill="#ff1a02" stroke="none" /><path d="M 120.51834098615036 104.47187691870673 l 61.38364292864233 13.37827927628336 a83.82459689950501,83.82459689950501 0 0,0 -0.31849011270893374,1.4033262019651378 l -61.14494195437573 -14.430039812187514" fill="#4dd4ff" stroke="none" /><path d="M 120.16314734710363 105.8691983318838 l 30.29017006293007 8.817027051650397 a52.54733536244797,52.54733536244797 0 0,0 -0.2595429998950718,0.8639342348647955 l -30.13435074303137 -9.335698890105915" fill="#9cff22" stroke="none" /><path d="M 119.94978838288452 106.5578916946017 l 30.22227145577871 9.934660918102038 a52.81325477697057,52.81325477697057 0 0,0 -0.29050956480728746,0.8588399081859521 l -30.04727646939906 -10.452002500762152" fill="#99ff23" stroke="none" /><path d="M 119.58574465831526 107.57618678355244 l 29.47774889503606 11.402626526770025 a52.60629006428624,52.60629006428624 0 0,0 -0.33302618601250555,0.8394435375576432 l -29.27766403405743 -11.906971081541231" fill="#9bff22" stroke="none" /><path d="M 119.31412917781788 108.2440532568976 l 35.98845438879789 15.361331172798986 a60.12977567907836,60.12977567907836 0 0,0 -0.41336677571329594,0.945864078222357 l -35.71945373106763 -15.976857320797187" fill="#45ff2d" stroke="none" /><path d="M 119.0197475246899 108.90220220490707 l 28.502932436966987 13.340811577929808 a52.47053242422395,52.47053242422395 0 0,0 -0.38883348529029665,0.812512435921202 l -28.269719693716777 -13.828136515916114" fill="#9dff22" stroke="none" /><line stroke="#e1ed5e" stroke-width="0.3" x1="174.33088141563837" x2="178.70328620479359" y1="141.23008692659167" y2="143.65538615756765" /><path d="M 175.20536237346943 141.71514677278685 a86.0,86.0 0 0,1 -30.301960400862466,31.631185727798858" fill="none" id="id65" stroke="none" /><text fill="#e1ed5e" style="font-size:6.75px; font-family:Arial;" text-anchor="middle"><textPath startOffset="22.145653131862474" xlink:href="#id65">May</textPath></text><path d="M 118.36410011445183 110.18625677009912 l 55.092300343355504 30.558770310297355 a84.0,84.0 0 0,0 -0.7102665399144867,1.254972919603509 l -54.559600438419636 -31.499999999999986" fill="#4dd2ff" stroke="none" /><path d="M 118.00360718960297 110.81064883170644 l 33.95609295737337 20.389658183107638 a60.607504462585744,60.607504462585744 0 0,0 -0.5432511397271743,0.8873599098362092 l -33.60107385319079 -20.969555209068407" fill="#40ff2d" stroke="none" /><path d="M 116.1254893667686 113.45245675266167 l 24.346864167003783 20.311020014345132 a52.706581789742984,52.706581789742984 0 0,0 -0.585558670023998,0.6897866409219365 l -23.99461093347267 -20.725973437716625" fill="#9aff23" stroke="none" /><path d="M 115.6541949942343 113.99807769240083 l 23.914618951596136 21.38459973137559 a53.081304606751736,53.081304606751736 0 0,0 -0.6132212638052612,0.6740375894761022 l -23.543999986948997 -21.791974896409364" fill="#96ff23" stroke="none" /><path d="M 115.41159269507618 114.26474011684316 l 23.051774254803664 21.33637810723914 a52.41059259277836,52.41059259277836 0 0,0 -0.6168082004633694,0.6550289340640171 l -22.682110220604034 -21.728948501247654" fill="#9eff22" stroke="none" /><path d="M 114.91283532996324 114.78537596483092 l 22.288829085730082 22.098327417740624 a52.3867484246864,52.3867484246864 0 0,0 -0.6386395654685026,0.6331811404432177 l -21.906197600131616 -22.477688568412503" fill="#9eff22" stroke="none" /><path d="M 114.39649973595853 115.28858382429668 l 13.086485905746521 13.897394533738845 a40.089098674052075,40.089098674052075 0 0,0 -0.5050658097148043,0.4674813732773002 l -12.84599032471775 -14.119993653148525" fill="#ffc011" stroke="none" /><path d="M 113.59037401385872 116.0094264158162 l 20.217321427820437 23.815953806240834 a52.24003427361764,52.24003427361764 0 0,0 -0.688637251009506,0.5744856870246813 l -19.805509842649034 -24.159501677177385" fill="#a0ff22" stroke="none" /><path d="M 112.7482090630111 116.68781488649013 l 19.197210728305926 25.129765082095638 a52.623377315339,52.623377315339 0 0,0 -0.7225615982047134,0.542223693911706 l -18.762996141190445 -25.45560780327136" fill="#9bff22" stroke="none" /><path d="M 111.5731344415666 117.5232005979908 l 17.26044977325277 26.134520886746962 a52.31990275136235,52.31990275136235 0 0,0 -0.7536915381525296,0.4885337491876416 l -16.80927260284323 -26.4269684776385" fill="#9fff22" stroke="none" /><line stroke="#e1ed5e" stroke-width="0.3" x1="143.1302829299769" x2="145.66735839644613" y1="173.24464959558577" y2="177.55315839532614" /><path d="M 143.63769802327073 174.10635135553383 a86.0,86.0 0 0,1 -40.68552437913181,11.842963189579606" fill="none" id="id66" stroke="none" /><text fill="#e1ed5e" style="font-size:6.75px; font-family:Arial;" text-anchor="middle"><textPath startOffset="21.407464694133747" xlink:href="#id66">June</textPath></text><path d="M 110.65571695917076 118.09573695890943 l 15.911051209419856 27.02044344164016 a52.35707120206949,52.35707120206949 0 0,0 -0.7783939042883578,0.44940593017644886 l -15.444864837271101 -27.28959626909278" fill="#9eff22" stroke="none" /><path d="M 110.02825361518725 118.45085714620011 l 18.203283039152232 33.49199051354204 a59.11919387870994,59.11919387870994 0 0,0 -0.8958280330423151,0.47697796988041036 l -17.625666190323365 -33.799538951145024" fill="#50ff2b" stroke="none" /><path d="M 109.06512990194946 118.94263497670748 l 13.659597181174739 28.543304522995477 a52.64340102208375,52.64340102208375 0 0,0 -0.8185078368523157,0.38310299653040303 l -13.167600630450918 -28.773583751096414" fill="#9bff22" stroke="none" /><path d="M 108.4095320186766 119.2426549942271 l 12.681214198071956 29.017099783846753 a52.6671008051432,52.6671008051432 0 0,0 -0.8315506342594585,0.35493951870816104 l -12.181228488642066 -29.230513952214316" fill="#9bff22" stroke="none" /><path d="M 107.407793817531 119.65005319985036 l 11.160963423081169 29.605781481945435 a52.639680808883945,52.639680808883945 0 0,0 -0.8482780494852564,0.3114994496462802 l -10.651096221941787 -29.793011780600438" fill="#9bff22" stroke="none" /><path d="M 106.38641147887787 120.00534299687104 l 9.530084960500876 29.852855403178733 a52.33712646490521,52.33712646490521 0 0,0 -0.8582276069891676,0.2658811064605364 l -9.016216720640083 -30.01205309744591" fill="#9fff22" stroke="none" /><path d="M 105.69591212413111 120.21278271476187 l 17.073193817213784 60.5867417463013 a83.94638371307089,83.94638371307089 0 0,0 -1.3903863609370877,0.378955985446922 l -16.030626055342 -60.87089822589236" fill="#4dd3ff" stroke="none" /><path d="M 104.29559338865022 120.5559693870025 l 1.8452508130619358 8.830193128815084 a30.020934610963483,30.020934610963483 0 0,0 -0.5053574234581368,0.10108563805171485 l -1.6933969040728405 -8.860568163529662" fill="#ff2b04" stroke="none" /><path d="M 103.2317021107853 120.74984581791261 l 4.864701741029693 31.234874878974626 a52.61143356025439,52.61143356025439 0 0,0 -0.8935798813777146,0.1313254704493187 l -4.327796754044292 -31.313781422722826" fill="#9bff22" stroke="none" /><path d="M 101.08105385017728 120.97215588758144 l 1.5363601850584923 29.804977148211723 a50.844548336734064,50.844548336734064 0 0,0 -0.8720426916560737,0.037449265348474585 l -1.024491732801589 -29.82695898198603" fill="#b1ff20" stroke="none" /><line stroke="#e1ed5e" stroke-width="0.3" x1="101.45913802915013" x2="101.54496967792366" y1="184.9874750549273" y2="189.98673829345242" /><path d="M 101.47630435890484 185.9873277026323 a86.0,86.0 0 0,1 -42.54439059252881,-10.42667462771756" fill="none" id="id67" stroke="none" /><text fill="#e1ed5e" style="font-size:6.75px; font-family:Arial;" text-anchor="middle"><textPath startOffset="22.145653131862474" xlink:href="#id67">July</textPath></text><path d="M 98.91894614982273 120.97215588758144 l -1.2936573552531454 25.096607088570554 a46.129927113123316,46.129927113123316 0 0,0 -0.7904816574940962,-0.04755341357572605 l 1.7242833648796878 -25.070701697170136" fill="#edff1a" stroke="none" /><path d="M 96.76829788921471 120.74984581791261 l -4.860366716415025 31.20704091121177 a52.583264034169744,52.583264034169744 0 0,0 -0.8907166657073763,-0.14656708838470284 l 5.395360885175465 -31.119007824331398" fill="#9cff22" stroke="none" /><path d="M 96.41257539226777 120.69131181640829 l -5.5569071792005795 32.0507639190112 a53.528920750471286,53.528920750471286 0 0,0 -0.9040404257471545,-0.1647462807421979 l 6.106282338498791 -31.95064946433764" fill="#90ff24" stroke="none" /><path d="M 95.35216902796893 120.47920084513623 l -3.6577693163306266 16.116806511484885 a37.52666719275642,37.52666719275642 0 0,0 -0.6269952807258311,-0.1479691790316586 l 3.933896750796346 -16.051641188806997" fill="#ff9b0e" stroke="none" /><path d="M 95.00130118170881 120.39639698878247 l -4.528504431401134 18.47784343604308 a40.02466952228448,40.02466952228448 0 0,0 -0.6659241748328433,-0.16927532116628147 l 4.845033899459357 -18.397382883041537" fill="#ffbf11" stroke="none" /><path d="M 94.30408787586889 120.21278271476187 l -1.70689069771988 6.057152926340693 a27.293057875710367,27.293057875710367 0 0,0 -0.44986755786507027,-0.13094988965448565 l 1.8106182679665568 -6.026959342383692" fill="#ff0000" stroke="none" /><path d="M 93.27111125876986 119.89276391827306 l -4.08622983530106 12.08021243260853 a33.7525999970145,33.7525999970145 0 0,0 -0.5472650227360311,-0.1903671832634184 l 4.293000630082113 -12.00828681677652" fill="#ff6409" stroke="none" /><path d="M 91.59046798132341 119.24265499422711 l -6.321804887426771 14.46552675219089 a36.78659815327683,36.78659815327683 0 0,0 -0.5764750669894785,-0.2578499649975622 l 6.569193357271884 -14.354873036283474" fill="#ff910d" stroke="none" /><path d="M 90.93487009805054 118.94263497670748 l -12.69416542877048 26.525923472914304 a50.40691163695871,50.40691163695871 0 0,0 -0.7773219857134096,-0.3802271353138749 l 13.147647663745959 -26.30410258750321" fill="#b6ff1f" stroke="none" /><path d="M 90.6110303473126 118.78422872680471 l -14.214599370568797 28.43872072376253 a52.79332747086934,52.79332747086934 0 0,0 -0.807166682193175,-0.4121450592181449 l 14.700693274475555 -28.190517712871547" fill="#99ff23" stroke="none" /><path d="M 90.28995756902619 118.62028667847754 l -12.878224973708873 24.695694444698645 a48.85185815308161,48.85185815308161 0 0,0 -0.7402479825675715,-0.3941403560838009 l 13.300261772063006 -24.470983620892273" fill="#caff1d" stroke="none" /><line stroke="#e1ed5e" stroke-width="0.3" x1="58.13341422392154" x2="55.67067388415222" y1="173.97424548756322" y2="178.32567169271397" /><path d="M 57.64086615596768 174.84453072859336 a86.0,86.0 0 0,1 -31.369924170532247,-30.572349798747897" fill="none" id="id68" stroke="none" /><text fill="#e1ed5e" style="font-size:6.75px; font-family:Arial;" text-anchor="middle"><textPath startOffset="22.145653131862474" xlink:href="#id68">August</textPath></text><path d="M 89.65649057296885 118.27599006163327 l -15.6271544615319 27.61168456850722 a52.72716629759607,52.72716629759607 0 0,0 -0.7838961174517511,-0.4525826344274745 l 16.09884304684405 -27.33935503680357" fill="#9aff23" stroke="none" /><path d="M 89.34428304082925 118.09573695890944 l -10.935052677942803 18.57011007800553 a42.550507311398185,42.550507311398185 0 0,0 -0.6262365715150893,-0.37603706795664427 l 11.25222200601532 -18.379659009512967" fill="#ffe215" stroke="none" /><path d="M 89.03521579738668 117.91015095944536 l -16.395758828360254 26.78123985701452 a52.40152410053844,52.40152410053844 0 0,0 -0.763155513144526,-0.4762654829398907 l 16.85307847029449 -26.49583857723308" fill="#9eff22" stroke="none" /><path d="M 88.72937992617639 117.7192867562869 l -16.931979891390686 26.619884716374 a52.54853729343883,52.54853729343883 0 0,0 -0.7569851207211236,-0.4906686096166685 l 17.386450644368818 -26.325302265053438" fill="#9cff22" stroke="none" /><path d="M 88.1277618465304 117.32195027204791 l -12.96831849600952 18.92116424857156 a43.938782468460815,43.938782468460815 0 0,0 -0.6185009421678626,-0.43176169283702853 l 13.291214529351146 -18.695757739929405" fill="#fff517" stroke="none" /><path d="M 87.83215693770417 117.11559508785305 l -18.399731360060997 25.88152641941259 a52.75537000132677,52.75537000132677 0 0,0 -0.7335985640540793,-0.5310687868670955 l 18.84131093448903 -25.56185686117243" fill="#99ff23" stroke="none" /><path d="M 87.54013794807813 116.9041958592261 l -18.59591943174507 25.228936158897564 a52.34178423800539,52.34178423800539 0 0,0 -0.7186950971479246,-0.5393221994360314 l 19.02626751780376 -24.90599493219752" fill="#9eff22" stroke="none" /><path d="M 87.2517909369889 116.68781488649013 l -11.50407347127177 15.059201459614306 a39.95054761830561,39.95054761830561 0 0,0 -0.5414061218355496,-0.4210006750049742 l 11.760889537742548 -14.859499732988539" fill="#ffbe11" stroke="none" /><path d="M 86.96720088162412 116.46651593811092 l -12.426383858009943 15.700330066662165 a41.02287142216985,41.02287142216985 0 0,0 -0.5484352166471109,-0.44178058883891663 l 12.694069845012315 -15.484701184029838" fill="#ffcd13" stroke="none" /><path d="M 86.40962598614128 116.0094264158162 l -20.225570094962983 23.825670715393787 a52.252780207601276,52.252780207601276 0 0,0 -0.6788395561940276,-0.5863654405215459 l 20.631589130919874 -23.47496114240752" fill="#a0ff22" stroke="none" /><path d="M 85.60350026404147 115.28858382429668 l -21.47585451255222 22.806613269575703 a52.326569168555565,52.326569168555565 0 0,0 -0.6486688416593691,-0.6214100768268409 l 21.864195840076903 -22.43459106244328" fill="#9fff22" stroke="none" /><path d="M 85.34317274990678 115.03919595460226 l -13.47657949641303 13.82815778517426 a40.30896534397469,40.30896534397469 0 0,0 -0.49140099139327836,-0.4872010081571894 l 13.711972407936273 -13.594776766788412" fill="#ffc312" stroke="none" /><path d="M 85.08716467003676 114.78537596483092 l -24.03812471876724 23.832671895891252 a54.85007665710985,54.85007665710985 0 0,0 -0.6571906307056535,-0.6743354824386125 l 24.4437021506237 -23.416513721384902" fill="#81ff25" stroke="none" /><path d="M 84.3458050057657 113.99807769240083 l -23.79121291320793 21.27424929088945 a52.91575621495599,52.91575621495599 0 0,0 -0.5996840248297082,-0.6823303377781176 l 24.152908001996227 -20.862706675300032" fill="#98ff23" stroke="none" /><path d="M 84.1078160697243 113.72728997021213 l -17.528737217176552 15.140905721172153 a44.16254853176252,44.16254853176252 0 0,0 -0.49063631723053314,-0.5779683480100953 l 17.786068097914196 -14.837770590712502" fill="#fff717" stroke="none" /><path d="M 83.8745106332314 113.45245675266167 l -24.397089528032662 20.352919796842293 a52.77198957722881,52.77198957722881 0 0,0 -0.5743431463324531,-0.7006052516362945 l 24.742879493603745 -19.931112263507504" fill="#99ff23" stroke="none" /><path d="M 83.4222238831116 112.89097897827486 l -25.917203230766564 20.153373991046394 a53.83077681883026,53.83077681883026 0 0,0 -0.560988526870631,-0.7343519896472868 l 26.25934373499149 -19.70550108815824" fill="#8dff24" stroke="none" /><path d="M 83.20337586046588 112.60449989151573 l -25.51882884239242 19.14980490743215 a52.90494716309732,52.90494716309732 0 0,0 -0.5388695882005085,-0.7310800892949584 l 25.84380045017676 -18.70891850886831" fill="#98ff23" stroke="none" /><path d="M 82.98947788004972 112.3143062007846 l -25.9220947528319 18.765597546106182 a53.001603829139896,53.001603829139896 0 0,0 -0.5272016568382832,-0.741575153615336 l 26.240411508200143 -18.31784516578134" fill="#97ff23" stroke="none" /><path d="M 82.78059297857968 112.02048342749411 l -25.993781180331965 18.145678042652825 a52.70082477915351,52.70082477915351 0 0,0 -0.5114747127756533,-0.7462568915466572 l 26.30144562992294 -17.69678641603612" fill="#9aff23" stroke="none" /><path d="M 82.576782715395 111.72311816256416 l -22.325812676593188 15.021803138174455 a47.90904088206038,47.90904088206038 0 0,0 -0.4532550275244376,-0.6862858812762049 l 22.580392143038353 -14.63633737855919" fill="#d6ff1c" stroke="none" /><path d="M 81.99639281039703 110.81064883170644 l -38.66873602064297 23.219464937367796 a66.10448644438625,66.10448644438625 0 0,0 -0.5758213547165946,-0.977870546881089 l 39.06163108548933 -22.552243222193148" fill="#35ff62" stroke="none" /><line stroke="#e1ed5e" stroke-width="0.3" x1="26.387840678322732" x2="22.057713659400548" y1="142.50000000000003" y2="145.00000000000006" /><path d="M 25.521815274538298 143.00000000000003 a86.0,86.0 0 0,1 -11.493303480769221,-40.785679425670985" fill="none" id="id69" stroke="none" /><text fill="#e1ed5e" style="font-size:6.75px; font-family:Arial;" text-anchor="middle"><textPath startOffset="21.40746469413373" xlink:href="#id69">September</textPath></text><path d="M 81.4637452351635 109.86951160357371 l -55.31561221903614 29.452447842387908 a83.66788363328827,83.66788363328827 0 0,0 -0.6641314803624792,-1.2735596826131368 l 55.81305176837356 -28.498541916670266" fill="#4dd5ff" stroke="none" /><path d="M 81.1358732173502 109.22738970284198 l -32.11929172338169 15.711155100139656 a56.75596866807471,56.75596866807471 0 0,0 -0.42059075996808437,-0.878872925906787 l 32.38426174130969 -15.157469672167766" fill="#6bff28" stroke="none" /><path d="M 80.83023694016515 108.57439118712176 l -44.170273518425056 19.756801521594014 a69.38743916613217,69.38743916613217 0 0,0 -0.4770092966284901,-1.091490620842584 l 44.50291669707051 -18.99564883097558" fill="#39ff8b" stroke="none" /><path d="M 80.5471966667186 107.91128576633889 l -33.11889057639052 13.469164475932436 a56.753032104853,56.753032104853 0 0,0 -0.3592772994147256,-0.9056134918277196 l 33.34522655077137 -12.898649966891151" fill="#6bff28" stroke="none" /><path d="M 80.05021161711548 106.5578916946017 l -11.88111817017667 3.905559531530087 a33.50657284103154,33.50657284103154 0 0,0 -0.17492869698840985,-0.5479616518326301 l 11.946411582942336 -3.7010288460060647" fill="#ff6008" stroke="none" /><line stroke="#e1ed5e" stroke-width="0.3" x1="15.003131293944662" x2="10.003315487706104" y1="100.72959589197737" y2="100.7725132973878" /><path d="M 14.003168132696942 100.73817937305945 a86.0,86.0 0 0,1 10.791469493833604,-42.45332614584628" fill="none" id="id70" stroke="none" /><text fill="#e1ed5e" style="font-size:6.75px; font-family:Arial;" text-anchor="middle"><textPath startOffset="22.145653131862435" xlink:href="#id70">October</textPath></text><line stroke="#e1ed5e" stroke-width="0.3" x1="26.387840678322718" x2="22.05771365940052" y1="57.49999999999999" y2="54.99999999999999" /><path d="M 25.521815274538284 56.99999999999999 a86.0,86.0 0 0,1 29.574782752854787,-30.34633250058573" fill="none" id="id71" stroke="none" /><text fill="#e1ed5e" style="font-size:6.75px; font-family:Arial;" text-anchor="middle"><textPath startOffset="21.40746469413373" xlink:href="#id71">November</textPath></text><line stroke="#e1ed5e" stroke-width="0.3" x1="56.869717070023135" x2="54.33264160355391" y1="26.7553504044142" y2="22.446841604673864" /><path d="M 56.362301976729285 25.89364864446614 a86.0,86.0 0 0,1 42.16139366436587,-11.88097634709845" fill="none" id="id72" stroke="none" /><text fill="#e1ed5e" style="font-size:6.75px; font-family:Arial;" text-anchor="middle"><textPath startOffset="22.145653131862474" xlink:href="#id72">December</textPath></text></svg>