<?xml version="1.0" encoding="utf-8" ?>
<svg baseProfile="full" height="200mm" version="1.1" viewBox="0,0,200,200" width="200mm" xmlns="http://www.w3.org/2000/svg" xmlns:ev="http://www.w3.org/2001/xml-events" xmlns:xlink="http://www.w3.org/1999/xlink"><defs /><rect fill="#1a1a1a" height="200" width="200" x="0" y="0" /><text alignment-baseline="middle" fill="#e1ed5e" style="dominant-baseline: central; font-size:9.0px; font-family:Arial;" text-anchor="middle" x="100.0" y="100.0">2025</text><line stroke="#e1ed5e" stroke-width="0.3" x1="100.0" x2="100.0" y1="15.0" y2="10.0" /><path d="M 100.0 14.0 a86.0,86.0 0 0,1 42.46469731375804,11.215312516191453" fill="none" id="id73" stroke="none" /><text fill="#e1ed5e" style="font-size:6.75px; font-family:Arial;" text-anchor="middle"><textPath startOffset="22.20632615414155" xlink:href="#id73">January</textPath></text><path d="M 100.0 79.0 l 0.0 -11.296533678742286 a32.296533678742286,32.296533678742286 0 0,0 0.5559317368111008,0.0047850799726463075 l -0.19445125753857237 11.294859975378198" fill="#ff780b" stroke="none" /><path d="M 104.66035177308747 79.52364482259891 l 3.1992882095349673 -14.056827656576122 a35.41630496397578,35.41630496397578 0 0,0 0.593267484839918,0.14040724595793475 l -3.440779381337409 13.999674498477319" fill="#ffa30f" stroke="none" /><path d="M 105.71112130821622 79.79150937346287 l 5.256126807942974 -18.598517453550958 a40.326968735195294,40.326968735195294 0 0,0 0.6663739352702038,0.19453282488183246 l -5.575490960936604 18.50528629975042" fill="#ffe415" stroke="none" /><path d="M 108.09893153111575 80.62456947434976 l 7.130386960408901 -17.058338700805418 a39.488627245865636,39.488627245865636 0 0,0 0.6248910579221448,0.267545739268722 l -7.422961776121361 16.933073433573906" fill="#ffd914" stroke="none" /><line stroke="#e1ed5e" stroke-width="0.3" x1="143.23703022742887" x2="145.7803849466894" y1="26.81831364943548" y2="22.513508569990506" /><path d="M 143.74570117128098 25.957352633546492 a86.0,86.0 0 0,1 28.547481713284135,27.462654790039103" fill="none" id="id74" stroke="none" /><text fill="#e1ed5e" style="font-size:6.75px; font-family:Arial;" text-anchor="middle"><textPath startOffset="19.985693538727396" xlink:href="#id74">February</textPath></text><path d="M 113.6212207817346 84.01681056812373 l 8.852836739071215 -10.38795045446947 a34.64852493763196,34.64852493763196 0 0,0 0.45060604896235845,0.3907611253144167 l -9.030336586680338 10.234024335735382" fill="#ff990e" stroke="none" /><line stroke="#e1ed5e" stroke-width="0.3" x1="172.23445277983987" x2="176.4835382374775" y1="55.19839476539836" y2="52.563006222186495" /><path d="M 173.08426987136738 54.67131705675599 a86.0,86.0 0 0,1 12.851231095245387,41.99856678651699" fill="none" id="id75" stroke="none" /><text fill="#e1ed5e" style="font-size:6.75px; font-family:Arial;" text-anchor="middle"><textPath startOffset="22.20632615414155" xlink:href="#id75">March</textPath></text><path d="M 119.47837535516314 92.15188598940014 l 8.92609295010751 -3.59644959419505 a30.62338739932799,30.62338739932799 0 0,0 0.19279092088869615,0.49063186495075234 l -8.986677420877905 3.442268724348513" fill="#ff6008" stroke="none" /><path d="M 120.53481517161879 95.60439243477599 l 6.500261706102977 -1.3914222890485262 a27.647515192482814,27.647515192482814 0 0,0 0.09560866759423438,0.46622181791667044 l -6.523249669612208 1.279324814968444" fill="#ff3605" stroke="none" /><path d="M 120.78858239683441 97.02765380044208 l 14.791977750373032 -2.114953199356275 a35.942410541910505,35.942410541910505 0 0,0 0.08229785249337443,0.6132145923403896 l -14.826191601924243 1.860020264951221" fill="#ffaa0f" stroke="none" /><line stroke="#e1ed5e" stroke-width="0.3" x1="184.98032266829074" x2="189.97916517819016" y1="98.17113171792111" y2="98.06355123074" /><path d="M 185.9800911702706 98.14961562048488 a86.0,86.0 0 0,1 -9.607161424134198,41.387399972396054" fill="none" id="id76" stroke="none" /><text fill="#e1ed5e" style="font-size:6.75px; font-family:Arial;" text-anchor="middle"><textPath startOffset="21.466115282336823" xlink:href="#id76">April</textPath></text><path d="M 120.99980553446 99.90962569577887 l 14.951760788670505 -0.06434607101191993 a35.95189924720199,35.95189924720199 0 0,0 -0.0026633555764946056,0.6188700389733145 l -14.950653135804508 -0.19303344616507923" fill="#ffaa0f" stroke="none" /><path d="M 120.99824983174949 100.27111621757518 l 37.76839745418142 0.4876418341385547 a58.771545385586485,58.771545385586485 0 0,0 -0.02176768551973005,1.0114588116240208 l -37.75440770597668 -1.1376904615526904" fill="#45ff2d" stroke="none" /><path d="M 120.92983693683757 101.71520430193887 l 11.469309459163238 0.9399121925312702 a32.507758009261416,32.507758009261416 0 0,0 -0.050503749008537685,0.5573046618996848 l -11.451431113877625 -1.1371982429795255" fill="#ff7b0b" stroke="none" /><path d="M 120.49622156327973 104.57218783832717 l 13.255238441243336 2.956907926081263 a34.581040115452765,34.581040115452765 0 0,0 -0.13460164993190282,0.5798603850541676 l -13.202376225380881 -3.1846369684839955" fill="#ff980e" stroke="none" /><path d="M 119.79798401119884 107.00284435728193 l 7.3089205345378945 2.585274990330258 a28.75267477428383,28.75267477428383 0 0,0 -0.1690598936110034,0.46518021888234157 l -7.263336379921665 -2.710703006218731" fill="#ff4606" stroke="none" /><path d="M 119.26925614724726 108.34839909993367 l 13.707666029796833 5.938841949625298 a35.938873842665494,35.938873842665494 0 0,0 -0.250817255540985,0.5655266974232498 l -13.603407689524577 -6.173916983541236" fill="#ffaa0f" stroke="none" /><line stroke="#e1ed5e" stroke-width="0.3" x1="174.80103733775053" x2="179.2010983576182" y1="140.37084112569926" y2="142.7455964860345" /><path d="M 175.68104954172406 140.8457921977663 a86.0,86.0 0 0,1 -30.038265399797805,32.042727171017184" fill="none" id="id77" stroke="none" /><text fill="#e1ed5e" style="font-size:6.75px; font-family:Arial;" text-anchor="middle"><textPath startOffset="22.206326154141568" xlink:href="#id77">May</textPath></text><path d="M 113.75828350139079 115.86535959552629 l 6.066746641898471 6.995866674715708 a30.259998128908244,30.259998128908244 0 0,0 -0.39645572209412433,0.33786816729182134 l -5.945425443227299 -7.099259232230476" fill="#ff5b08" stroke="none" /><path d="M 111.45004920935366 117.60387380957326 l 5.33628149501707 8.204263958437966 a30.787024435127655,30.787024435127655 0 0,0 -0.4467317431528199,0.2851253348610074 l -5.194267949817319 -8.294903722122783" fill="#ff6309" stroke="none" /><line stroke="#e1ed5e" stroke-width="0.3" x1="143.8653032363475" x2="146.44561519142675" y1="172.8068346515853" y2="177.08958963109032" /><path d="M 144.38136562736335 173.6633856474863 a86.0,86.0 0 0,1 -40.68145358897372,12.25698825130547" fill="none" id="id78" stroke="none" /><text fill="#e1ed5e" style="font-size:6.75px; font-family:Arial;" text-anchor="middle"><textPath startOffset="21.466115282336833" xlink:href="#id78">June</textPath></text><line stroke="#e1ed5e" stroke-width="0.3" x1="102.19456741930631" x2="102.32365962044197" y1="184.97166512339345" y2="189.96999836594603" /><path d="M 102.22038585953345 185.97133177190398 a86.0,86.0 0 0,1 -42.740103519485714,-10.115201625700543" fill="none" id="id79" stroke="none" /><text fill="#e1ed5e" style="font-size:6.75px; font-family:Arial;" text-anchor="middle"><textPath startOffset="22.20632615414155" xlink:href="#id79">July</textPath></text><path d="M 96.22490169976321 120.6578951692458 l -2.2420561370141825 12.268862148330808 a33.472040496096355,33.472040496096355 0 0,0 -0.5658884944039007,-0.1084538767784727 l 2.4529122459897783 -12.228451073203868" fill="#ff880c" stroke="none" /><path d="M 95.16358092515715 120.4354850818985 l -2.400932402372004 10.144740877921967 a31.424981720892404,31.424981720892404 0 0,0 -0.5253160290535205,-0.12910989906586698 l 2.575201716168735 -10.10190972054207" fill="#ff6c09" stroke="none" /><path d="M 93.76903079525671 120.05430185196036 l -3.4453580374217996 11.088844736696322 a32.611759969986664,32.611759969986664 0 0,0 -0.534644421746863,-0.1711762603289792 l 3.6357238042596034 -11.027895629707636" fill="#ff7c0b" stroke="none" /><path d="M 92.7421414339146 119.70592522655815 l -4.072991667549583 11.058643333748048 a32.784856957425426,32.784856957425426 0 0,0 -0.527882687877141,-0.19960006342907435 l 4.262744576187006 -10.98689502021234" fill="#ff7f0b" stroke="none" /><path d="M 92.06813273071674 119.44442032107085 l -1.1493866939636308 2.8176414493751842 a24.04305654063439,24.04305654063439 0 0,0 -0.38185931224846575,-0.15961722348956647 l 1.1977174657095588 -2.7974391828656446" fill="#ff0000" stroke="none" /><path d="M 91.7346041902142 119.30500536409082 l -6.25441605286607 14.608076640066477 a36.890677244359495,36.890677244359495 0 0,0 -0.5816066920705468,-0.2549592819585858 l 6.504943419594359 -14.498252804813438" fill="#ffb710" stroke="none" /><line stroke="#e1ed5e" stroke-width="0.3" x1="58.666819895761336" x2="56.23545636021788" y1="174.27360380694188" y2="178.64263932499728" /><path d="M 58.180547188652646 175.14741091055294 a86.0,86.0 0 0,1 -31.652253787137756,-30.449443065178592" fill="none" id="id80" stroke="none" /><text fill="#e1ed5e" style="font-size:6.75px; font-family:Arial;" text-anchor="middle"><textPath startOffset="22.20632615414155" xlink:href="#id80">August</textPath></text><path d="M 88.8546689885994 117.79835938074946 l -1.8025464148790946 2.8785478744132833 a24.396352667654334,24.396352667654334 0 0,0 -0.35400060102454095,-0.22593993253260292 l 1.851828817950559 -2.847093513056876" fill="#ff0500" stroke="none" /><path d="M 82.85270091963577 112.12312394758628 l -8.569470375850468 6.058607308632615 a31.494881849873074,31.494881849873074 0 0,0 -0.3091583987413624,-0.44536573150987974 l 8.672489681753964 -5.9102003149357225" fill="#ff6d0a" stroke="none" /><line stroke="#e1ed5e" stroke-width="0.3" x1="26.63291911575756" x2="22.317208475507996" y1="142.92168965132927" y2="145.44649492493687" /><path d="M 25.769776987707644 143.4266507060508 a86.0,86.0 0 0,1 -11.730757126820373,-40.83630448921669" fill="none" id="id81" stroke="none" /><text fill="#e1ed5e" style="font-size:6.75px; font-family:Arial;" text-anchor="middle"><textPath startOffset="21.46611528233685" xlink:href="#id81">September</textPath></text><line stroke="#e1ed5e" stroke-width="0.3" x1="15.007084014347285" x2="10.007500721073583" y1="101.09737516637583" y2="101.16192664675087" /><path d="M 14.007167355692545 101.11028546245083 a86.0,86.0 0 0,1 10.666146001902534,-42.60595125391555" fill="none" id="id82" stroke="none" /><text fill="#e1ed5e" style="font-size:6.75px; font-family:Arial;" text-anchor="middle"><textPath startOffset="22.20632615414155" xlink:href="#id82">October</textPath></text><line stroke="#e1ed5e" stroke-width="0.3" x1="26.266209847984243" x2="21.928928074336255" y1="57.711370442889674" y2="55.22380399835377" /><path d="M 25.398753493254645 57.213857153982495 a86.0,86.0 0 0,1 29.58750427330803,-30.492523968695096" fill="none" id="id83" stroke="none" /><text fill="#e1ed5e" style="font-size:6.75px; font-family:Arial;" text-anchor="middle"><textPath startOffset="21.46611528233685" xlink:href="#id83">November</textPath></text><path d="M 81.96595687620814 89.24020034530311 l -54.1021293713756 -32.27939896409068 a84.0,84.0 0 0,0 0.7515368068551322,-1.2353289071717022 l 53.53847676623425 33.20589564446946" fill="#4dd2ff" stroke="none" /><line stroke="#e1ed5e" stroke-width="0.3" x1="56.762969772571076" x2="54.21961505331055" y1="26.818313649435495" y2="22.513508569990535" /><path d="M 56.25429882871897 25.957352633546506 a86.0,86.0 0 0,1 42.265352541879196,-11.944610805530505" fill="none" id="id84" stroke="none" /><text fill="#e1ed5e" style="font-size:6.75px; font-family:Arial;" text-anchor="middle"><textPath startOffset="22.20632615414155" xlink:href="#id84">December</textPath></text></svg>